<mxfile host="app.diagrams.net" agent="Mozilla/5.0 (Windows NT 10.0; Win64; x64) AppleWebKit/537.36 (KHTML, like Gecko) Chrome/134.0.0.0 Safari/537.36" version="26.1.1">
  <diagram name="Page-1" id="z5G7YM2TTc3ziBkQhOQK">
    <mxGraphModel dx="2079" dy="1802" grid="1" gridSize="10" guides="1" tooltips="1" connect="1" arrows="1" fold="1" page="1" pageScale="1" pageWidth="827" pageHeight="1169" math="0" shadow="0">
      <root>
        <mxCell id="0" />
        <mxCell id="1" parent="0" />
        <mxCell id="y2ogkmQ-JljMTqqqrQBC-6" style="edgeStyle=orthogonalEdgeStyle;rounded=0;orthogonalLoop=1;jettySize=auto;html=1;exitX=0.5;exitY=1;exitDx=0;exitDy=0;entryX=0.5;entryY=0;entryDx=0;entryDy=0;" parent="1" source="y2ogkmQ-JljMTqqqrQBC-1" target="y2ogkmQ-JljMTqqqrQBC-3" edge="1">
          <mxGeometry relative="1" as="geometry" />
        </mxCell>
        <mxCell id="y2ogkmQ-JljMTqqqrQBC-1" value="&lt;div style=&quot;color: #383a42;background-color: #f5f5f5;font-family: Consolas, &#39;Courier New&#39;, monospace;font-weight: normal;font-size: 14px;line-height: 19px;white-space: pre;&quot;&gt;&lt;div&gt;&lt;span style=&quot;color: #aca600;&quot;&gt;media_device_register&lt;/span&gt;&lt;/div&gt;&lt;/div&gt;" style="text;whiteSpace=wrap;html=1;" parent="1" vertex="1">
          <mxGeometry x="230" y="200" width="170" height="30" as="geometry" />
        </mxCell>
        <mxCell id="y2ogkmQ-JljMTqqqrQBC-5" style="edgeStyle=orthogonalEdgeStyle;rounded=0;orthogonalLoop=1;jettySize=auto;html=1;entryX=0.5;entryY=0;entryDx=0;entryDy=0;" parent="1" source="y2ogkmQ-JljMTqqqrQBC-2" target="y2ogkmQ-JljMTqqqrQBC-1" edge="1">
          <mxGeometry relative="1" as="geometry" />
        </mxCell>
        <mxCell id="y2ogkmQ-JljMTqqqrQBC-2" value="&lt;div style=&quot;color: #383a42;background-color: #f5f5f5;font-family: Consolas, &#39;Courier New&#39;, monospace;font-weight: normal;font-size: 14px;line-height: 19px;white-space: pre;&quot;&gt;&lt;div&gt;&lt;span style=&quot;color: #4078f2;&quot;&gt;media_device_init&lt;/span&gt;&lt;/div&gt;&lt;/div&gt;" style="text;whiteSpace=wrap;html=1;" parent="1" vertex="1">
          <mxGeometry x="245" y="140" width="140" height="30" as="geometry" />
        </mxCell>
        <mxCell id="y2ogkmQ-JljMTqqqrQBC-34" value="" style="edgeStyle=orthogonalEdgeStyle;rounded=0;orthogonalLoop=1;jettySize=auto;html=1;" parent="1" source="y2ogkmQ-JljMTqqqrQBC-3" target="y2ogkmQ-JljMTqqqrQBC-10" edge="1">
          <mxGeometry relative="1" as="geometry" />
        </mxCell>
        <mxCell id="y2ogkmQ-JljMTqqqrQBC-3" value="&lt;div style=&quot;color: rgb(56, 58, 66); background-color: rgb(245, 245, 245); font-family: Consolas, &amp;quot;Courier New&amp;quot;, monospace; font-weight: normal; font-size: 14px; line-height: 19px; white-space: pre;&quot;&gt;&lt;div style=&quot;line-height: 19px;&quot;&gt;&lt;span style=&quot;color: rgb(64, 120, 242);&quot;&gt;media_create_pad_link&lt;/span&gt;&lt;br&gt;&lt;/div&gt;&lt;/div&gt;" style="text;whiteSpace=wrap;html=1;align=center;" parent="1" vertex="1">
          <mxGeometry x="230" y="275" width="170" height="30" as="geometry" />
        </mxCell>
        <mxCell id="y2ogkmQ-JljMTqqqrQBC-7" value="初始化media_device" style="text;html=1;align=center;verticalAlign=middle;whiteSpace=wrap;rounded=0;" parent="1" vertex="1">
          <mxGeometry x="140" y="110" width="130" height="30" as="geometry" />
        </mxCell>
        <mxCell id="y2ogkmQ-JljMTqqqrQBC-8" value="注册media_device" style="text;html=1;align=center;verticalAlign=middle;whiteSpace=wrap;rounded=0;" parent="1" vertex="1">
          <mxGeometry x="140" y="180" width="130" height="30" as="geometry" />
        </mxCell>
        <mxCell id="y2ogkmQ-JljMTqqqrQBC-9" value="建立pad之间的联系" style="text;html=1;align=center;verticalAlign=middle;whiteSpace=wrap;rounded=0;" parent="1" vertex="1">
          <mxGeometry x="140" y="245" width="130" height="30" as="geometry" />
        </mxCell>
        <mxCell id="y2ogkmQ-JljMTqqqrQBC-10" value="&lt;div style=&quot;color: rgb(56, 58, 66); background-color: rgb(245, 245, 245); font-family: Consolas, &amp;quot;Courier New&amp;quot;, monospace; font-weight: normal; font-size: 14px; line-height: 19px; white-space: pre;&quot;&gt;&lt;div&gt;&lt;span style=&quot;color: rgb(228, 86, 73);&quot;&gt;link&lt;/span&gt;&lt;span style=&quot;color: rgb(56, 58, 66);&quot;&gt; &lt;/span&gt;&lt;span style=&quot;color: rgb(56, 58, 66);&quot;&gt;=&lt;/span&gt;&lt;span style=&quot;color: rgb(56, 58, 66);&quot;&gt; &lt;/span&gt;&lt;span style=&quot;color: rgb(64, 120, 242);&quot;&gt;media_add_link&lt;/span&gt;&lt;span style=&quot;color: rgb(56, 58, 66);&quot;&gt;(&lt;/span&gt;&lt;span style=&quot;color: rgb(56, 58, 66);&quot;&gt;&amp;amp;&lt;/span&gt;&lt;span style=&quot;color: rgb(0, 175, 175);&quot;&gt;source&lt;/span&gt;&lt;span style=&quot;color: rgb(56, 58, 66);&quot;&gt;-&amp;gt;&lt;/span&gt;&lt;span style=&quot;color: rgb(228, 86, 73);&quot;&gt;links&lt;/span&gt;&lt;span style=&quot;color: rgb(56, 58, 66);&quot;&gt;);&lt;/span&gt;&lt;/div&gt;&lt;div&gt;&lt;span style=&quot;color: rgb(56, 58, 66);&quot;&gt;&lt;div style=&quot;line-height: 19px;&quot;&gt;&lt;div&gt;&lt;span style=&quot;color: rgb(228, 86, 73);&quot;&gt;link&lt;/span&gt;-&amp;gt;&lt;span style=&quot;color: rgb(228, 86, 73);&quot;&gt;source&lt;/span&gt; = &amp;amp;&lt;span style=&quot;color: rgb(0, 175, 175);&quot;&gt;source&lt;/span&gt;-&amp;gt;&lt;span style=&quot;color: rgb(228, 86, 73);&quot;&gt;pads&lt;/span&gt;[&lt;span style=&quot;color: rgb(0, 175, 175);&quot;&gt;source_pad&lt;/span&gt;];&lt;/div&gt;&lt;div&gt;&lt;span style=&quot;color: rgb(228, 86, 73);&quot;&gt;link&lt;/span&gt;-&amp;gt;&lt;span style=&quot;color: rgb(228, 86, 73);&quot;&gt;sink&lt;/span&gt; = &amp;amp;&lt;span style=&quot;color: rgb(0, 175, 175);&quot;&gt;sink&lt;/span&gt;-&amp;gt;&lt;span style=&quot;color: rgb(228, 86, 73);&quot;&gt;pads&lt;/span&gt;[&lt;span style=&quot;color: rgb(0, 175, 175);&quot;&gt;sink_pad&lt;/span&gt;];&lt;/div&gt;&lt;div&gt;&lt;span style=&quot;color: rgb(228, 86, 73);&quot;&gt;link&lt;/span&gt;-&amp;gt;&lt;span style=&quot;color: rgb(228, 86, 73);&quot;&gt;flags&lt;/span&gt; = &lt;span style=&quot;color: rgb(0, 175, 175);&quot;&gt;flags&lt;/span&gt;;&lt;/div&gt;&lt;div&gt;&lt;br&gt;&lt;/div&gt;&lt;div&gt;&lt;span style=&quot;background-color: light-dark(rgb(245, 245, 245), rgb(26, 26, 26)); color: rgb(228, 86, 73);&quot;&gt;backlink&lt;/span&gt;&lt;span style=&quot;color: light-dark(rgb(56, 58, 66), rgb(185, 187, 194)); background-color: light-dark(rgb(245, 245, 245), rgb(26, 26, 26));&quot;&gt; &lt;/span&gt;&lt;span style=&quot;color: light-dark(rgb(56, 58, 66), rgb(185, 187, 194)); background-color: light-dark(rgb(245, 245, 245), rgb(26, 26, 26));&quot;&gt;=&lt;/span&gt;&lt;span style=&quot;color: light-dark(rgb(56, 58, 66), rgb(185, 187, 194)); background-color: light-dark(rgb(245, 245, 245), rgb(26, 26, 26));&quot;&gt; &lt;/span&gt;&lt;span style=&quot;background-color: light-dark(rgb(245, 245, 245), rgb(26, 26, 26)); color: rgb(64, 120, 242);&quot;&gt;media_add_link&lt;/span&gt;&lt;span style=&quot;color: light-dark(rgb(56, 58, 66), rgb(185, 187, 194)); background-color: light-dark(rgb(245, 245, 245), rgb(26, 26, 26));&quot;&gt;(&lt;/span&gt;&lt;span style=&quot;color: light-dark(rgb(56, 58, 66), rgb(185, 187, 194)); background-color: light-dark(rgb(245, 245, 245), rgb(26, 26, 26));&quot;&gt;&amp;amp;&lt;/span&gt;&lt;span style=&quot;background-color: light-dark(rgb(245, 245, 245), rgb(26, 26, 26)); color: rgb(0, 175, 175);&quot;&gt;sink&lt;/span&gt;&lt;span style=&quot;color: light-dark(rgb(56, 58, 66), rgb(185, 187, 194)); background-color: light-dark(rgb(245, 245, 245), rgb(26, 26, 26));&quot;&gt;-&amp;gt;&lt;/span&gt;&lt;span style=&quot;background-color: light-dark(rgb(245, 245, 245), rgb(26, 26, 26)); color: rgb(228, 86, 73);&quot;&gt;links&lt;/span&gt;&lt;span style=&quot;color: light-dark(rgb(56, 58, 66), rgb(185, 187, 194)); background-color: light-dark(rgb(245, 245, 245), rgb(26, 26, 26));&quot;&gt;);&lt;/span&gt;&lt;/div&gt;&lt;div&gt;&lt;div style=&quot;line-height: 19px;&quot;&gt;&lt;div&gt;&lt;span style=&quot;color: rgb(228, 86, 73);&quot;&gt;backlink&lt;/span&gt;-&amp;gt;&lt;span style=&quot;color: rgb(228, 86, 73);&quot;&gt;source&lt;/span&gt; = &amp;amp;&lt;span style=&quot;color: rgb(0, 175, 175);&quot;&gt;source&lt;/span&gt;-&amp;gt;&lt;span style=&quot;color: rgb(228, 86, 73);&quot;&gt;pads&lt;/span&gt;[&lt;span style=&quot;color: rgb(0, 175, 175);&quot;&gt;source_pad&lt;/span&gt;];&lt;/div&gt;&lt;div&gt;&lt;span style=&quot;color: rgb(228, 86, 73);&quot;&gt;backlink&lt;/span&gt;-&amp;gt;&lt;span style=&quot;color: rgb(228, 86, 73);&quot;&gt;sink&lt;/span&gt; = &amp;amp;&lt;span style=&quot;color: rgb(0, 175, 175);&quot;&gt;sink&lt;/span&gt;-&amp;gt;&lt;span style=&quot;color: rgb(228, 86, 73);&quot;&gt;pads&lt;/span&gt;[&lt;span style=&quot;color: rgb(0, 175, 175);&quot;&gt;sink_pad&lt;/span&gt;];&lt;/div&gt;&lt;div&gt;&lt;span style=&quot;color: rgb(228, 86, 73);&quot;&gt;backlink&lt;/span&gt;-&amp;gt;&lt;span style=&quot;color: rgb(228, 86, 73);&quot;&gt;flags&lt;/span&gt; = &lt;span style=&quot;color: rgb(0, 175, 175);&quot;&gt;flags&lt;/span&gt;;&lt;/div&gt;&lt;div&gt;&lt;span style=&quot;color: rgb(228, 86, 73);&quot;&gt;backlink&lt;/span&gt;-&amp;gt;&lt;span style=&quot;color: rgb(228, 86, 73);&quot;&gt;is_backlink&lt;/span&gt; = &lt;span style=&quot;color: rgb(228, 86, 73);&quot;&gt;true&lt;/span&gt;;&lt;/div&gt;&lt;div&gt;&lt;br&gt;&lt;/div&gt;&lt;div&gt;&lt;div style=&quot;line-height: 19px;&quot;&gt;&lt;div&gt;&lt;span style=&quot;color: #e45649;&quot;&gt;link&lt;/span&gt;-&amp;gt;&lt;span style=&quot;color: #e45649;&quot;&gt;reverse&lt;/span&gt; = &lt;span style=&quot;color: #e45649;&quot;&gt;backlink&lt;/span&gt;;&lt;/div&gt;&lt;div&gt;&lt;span style=&quot;color: #e45649;&quot;&gt;backlink&lt;/span&gt;-&amp;gt;&lt;span style=&quot;color: #e45649;&quot;&gt;reverse&lt;/span&gt; = &lt;span style=&quot;color: #e45649;&quot;&gt;link&lt;/span&gt;;&lt;/div&gt;&lt;/div&gt;&lt;/div&gt;&lt;/div&gt;&lt;/div&gt;&lt;/div&gt;&lt;/span&gt;&lt;/div&gt;&lt;/div&gt;" style="text;whiteSpace=wrap;html=1;" parent="1" vertex="1">
          <mxGeometry x="510" y="160" width="350" height="260" as="geometry" />
        </mxCell>
        <mxCell id="y2ogkmQ-JljMTqqqrQBC-11" value="&lt;div style=&quot;color: rgb(56, 58, 66); background-color: rgb(245, 245, 245); font-family: Consolas, &amp;quot;Courier New&amp;quot;, monospace; font-weight: normal; line-height: 19px; white-space: pre;&quot;&gt;&lt;div style=&quot;&quot;&gt;&lt;font style=&quot;font-size: 11px;&quot;&gt;&lt;span style=&quot;color: rgb(166, 38, 164);&quot;&gt;struct&lt;/span&gt;&lt;span style=&quot;color: rgb(56, 58, 66);&quot;&gt; &lt;/span&gt;&lt;span style=&quot;color: rgb(193, 132, 1);&quot;&gt;media_link&lt;/span&gt;&lt;span style=&quot;color: rgb(56, 58, 66);&quot;&gt; {&lt;/span&gt;&lt;/font&gt;&lt;/div&gt;&lt;div style=&quot;&quot;&gt;&lt;font style=&quot;font-size: 11px;&quot;&gt;&lt;span style=&quot;color: rgb(56, 58, 66);&quot;&gt;&amp;nbsp; &amp;nbsp; &amp;nbsp; &amp;nbsp; &lt;/span&gt;&lt;span style=&quot;color: rgb(166, 38, 164);&quot;&gt;struct&lt;/span&gt;&lt;span style=&quot;color: rgb(56, 58, 66);&quot;&gt; &lt;/span&gt;&lt;span style=&quot;color: rgb(193, 132, 1);&quot;&gt;media_gobj&lt;/span&gt;&lt;span style=&quot;color: rgb(56, 58, 66);&quot;&gt; &lt;/span&gt;&lt;span style=&quot;color: rgb(228, 86, 73);&quot;&gt;graph_obj&lt;/span&gt;&lt;span style=&quot;color: rgb(56, 58, 66);&quot;&gt;;&lt;/span&gt;&lt;/font&gt;&lt;/div&gt;&lt;div style=&quot;&quot;&gt;&lt;font style=&quot;font-size: 11px;&quot;&gt;&lt;span style=&quot;color: rgb(56, 58, 66);&quot;&gt;&amp;nbsp; &amp;nbsp; &amp;nbsp; &amp;nbsp; &lt;/span&gt;&lt;span style=&quot;color: rgb(166, 38, 164);&quot;&gt;struct&lt;/span&gt;&lt;span style=&quot;color: rgb(56, 58, 66);&quot;&gt; &lt;/span&gt;&lt;span style=&quot;color: rgb(193, 132, 1);&quot;&gt;list_head&lt;/span&gt;&lt;span style=&quot;color: rgb(56, 58, 66);&quot;&gt; &lt;/span&gt;&lt;span style=&quot;color: rgb(228, 86, 73);&quot;&gt;list&lt;/span&gt;&lt;span style=&quot;color: rgb(56, 58, 66);&quot;&gt;;&lt;/span&gt;&lt;/font&gt;&lt;/div&gt;&lt;div style=&quot;&quot;&gt;&lt;font style=&quot;font-size: 11px;&quot;&gt;&lt;span style=&quot;color: rgb(56, 58, 66);&quot;&gt;&amp;nbsp; &amp;nbsp; &amp;nbsp; &amp;nbsp; &lt;/span&gt;&lt;span style=&quot;color: rgb(166, 38, 164);&quot;&gt;union&lt;/span&gt;&lt;span style=&quot;color: rgb(56, 58, 66);&quot;&gt; {&lt;/span&gt;&lt;/font&gt;&lt;/div&gt;&lt;div style=&quot;&quot;&gt;&lt;font style=&quot;font-size: 11px;&quot;&gt;&lt;span style=&quot;color: rgb(56, 58, 66);&quot;&gt;&amp;nbsp; &amp;nbsp; &amp;nbsp; &amp;nbsp; &amp;nbsp; &amp;nbsp; &amp;nbsp; &amp;nbsp; &lt;/span&gt;&lt;span style=&quot;color: rgb(166, 38, 164);&quot;&gt;struct&lt;/span&gt;&lt;span style=&quot;color: rgb(56, 58, 66);&quot;&gt; &lt;/span&gt;&lt;span style=&quot;color: rgb(193, 132, 1);&quot;&gt;media_gobj&lt;/span&gt;&lt;span style=&quot;color: rgb(56, 58, 66);&quot;&gt; &lt;/span&gt;&lt;span style=&quot;color: rgb(166, 38, 164);&quot;&gt;*&lt;/span&gt;&lt;span style=&quot;color: rgb(228, 86, 73);&quot;&gt;gobj0&lt;/span&gt;&lt;span style=&quot;color: rgb(56, 58, 66);&quot;&gt;;&lt;/span&gt;&lt;/font&gt;&lt;/div&gt;&lt;div style=&quot;&quot;&gt;&lt;font style=&quot;font-size: 11px;&quot;&gt;&lt;span style=&quot;color: rgb(56, 58, 66);&quot;&gt;&amp;nbsp; &amp;nbsp; &amp;nbsp; &amp;nbsp; &amp;nbsp; &amp;nbsp; &amp;nbsp; &amp;nbsp; &lt;/span&gt;&lt;span style=&quot;color: rgb(166, 38, 164);&quot;&gt;struct&lt;/span&gt;&lt;span style=&quot;color: rgb(56, 58, 66);&quot;&gt; &lt;/span&gt;&lt;span style=&quot;color: rgb(193, 132, 1);&quot;&gt;media_pad&lt;/span&gt;&lt;span style=&quot;color: rgb(56, 58, 66);&quot;&gt; &lt;/span&gt;&lt;span style=&quot;color: rgb(166, 38, 164);&quot;&gt;*&lt;/span&gt;&lt;span style=&quot;color: rgb(228, 86, 73);&quot;&gt;source&lt;/span&gt;&lt;span style=&quot;color: rgb(56, 58, 66);&quot;&gt;;&lt;/span&gt;&lt;/font&gt;&lt;/div&gt;&lt;div style=&quot;&quot;&gt;&lt;font style=&quot;font-size: 11px;&quot;&gt;&lt;span style=&quot;color: rgb(56, 58, 66);&quot;&gt;&amp;nbsp; &amp;nbsp; &amp;nbsp; &amp;nbsp; &amp;nbsp; &amp;nbsp; &amp;nbsp; &amp;nbsp; &lt;/span&gt;&lt;span style=&quot;color: rgb(166, 38, 164);&quot;&gt;struct&lt;/span&gt;&lt;span style=&quot;color: rgb(56, 58, 66);&quot;&gt; &lt;/span&gt;&lt;span style=&quot;color: rgb(193, 132, 1);&quot;&gt;media_interface&lt;/span&gt;&lt;span style=&quot;color: rgb(56, 58, 66);&quot;&gt; &lt;/span&gt;&lt;span style=&quot;color: rgb(166, 38, 164);&quot;&gt;*&lt;/span&gt;&lt;span style=&quot;color: rgb(228, 86, 73);&quot;&gt;intf&lt;/span&gt;&lt;span style=&quot;color: rgb(56, 58, 66);&quot;&gt;;&lt;/span&gt;&lt;/font&gt;&lt;/div&gt;&lt;div style=&quot;&quot;&gt;&lt;span style=&quot;color: rgb(56, 58, 66);&quot;&gt;&lt;font style=&quot;font-size: 11px;&quot;&gt;&amp;nbsp; &amp;nbsp; &amp;nbsp; &amp;nbsp; };&lt;/font&gt;&lt;/span&gt;&lt;/div&gt;&lt;div style=&quot;&quot;&gt;&lt;font style=&quot;font-size: 11px;&quot;&gt;&lt;span style=&quot;color: rgb(56, 58, 66);&quot;&gt;&amp;nbsp; &amp;nbsp; &amp;nbsp; &amp;nbsp; &lt;/span&gt;&lt;span style=&quot;color: rgb(166, 38, 164);&quot;&gt;union&lt;/span&gt;&lt;span style=&quot;color: rgb(56, 58, 66);&quot;&gt; {&lt;/span&gt;&lt;/font&gt;&lt;/div&gt;&lt;div style=&quot;&quot;&gt;&lt;font style=&quot;font-size: 11px;&quot;&gt;&lt;span style=&quot;color: rgb(56, 58, 66);&quot;&gt;&amp;nbsp; &amp;nbsp; &amp;nbsp; &amp;nbsp; &amp;nbsp; &amp;nbsp; &amp;nbsp; &amp;nbsp; &lt;/span&gt;&lt;span style=&quot;color: rgb(166, 38, 164);&quot;&gt;struct&lt;/span&gt;&lt;span style=&quot;color: rgb(56, 58, 66);&quot;&gt; &lt;/span&gt;&lt;span style=&quot;color: rgb(193, 132, 1);&quot;&gt;media_gobj&lt;/span&gt;&lt;span style=&quot;color: rgb(56, 58, 66);&quot;&gt; &lt;/span&gt;&lt;span style=&quot;color: rgb(166, 38, 164);&quot;&gt;*&lt;/span&gt;&lt;span style=&quot;color: rgb(228, 86, 73);&quot;&gt;gobj1&lt;/span&gt;&lt;span style=&quot;color: rgb(56, 58, 66);&quot;&gt;;&lt;/span&gt;&lt;/font&gt;&lt;/div&gt;&lt;div style=&quot;&quot;&gt;&lt;font style=&quot;font-size: 11px;&quot;&gt;&lt;span style=&quot;color: rgb(56, 58, 66);&quot;&gt;&amp;nbsp; &amp;nbsp; &amp;nbsp; &amp;nbsp; &amp;nbsp; &amp;nbsp; &amp;nbsp; &amp;nbsp; &lt;/span&gt;&lt;span style=&quot;color: rgb(166, 38, 164);&quot;&gt;struct&lt;/span&gt;&lt;span style=&quot;color: rgb(56, 58, 66);&quot;&gt; &lt;/span&gt;&lt;span style=&quot;color: rgb(193, 132, 1);&quot;&gt;media_pad&lt;/span&gt;&lt;span style=&quot;color: rgb(56, 58, 66);&quot;&gt; &lt;/span&gt;&lt;span style=&quot;color: rgb(166, 38, 164);&quot;&gt;*&lt;/span&gt;&lt;span style=&quot;color: rgb(228, 86, 73);&quot;&gt;sink&lt;/span&gt;&lt;span style=&quot;color: rgb(56, 58, 66);&quot;&gt;;&lt;/span&gt;&lt;/font&gt;&lt;/div&gt;&lt;div style=&quot;&quot;&gt;&lt;font style=&quot;font-size: 11px;&quot;&gt;&lt;span style=&quot;color: rgb(56, 58, 66);&quot;&gt;&amp;nbsp; &amp;nbsp; &amp;nbsp; &amp;nbsp; &amp;nbsp; &amp;nbsp; &amp;nbsp; &amp;nbsp; &lt;/span&gt;&lt;span style=&quot;color: rgb(166, 38, 164);&quot;&gt;struct&lt;/span&gt;&lt;span style=&quot;color: rgb(56, 58, 66);&quot;&gt; &lt;/span&gt;&lt;span style=&quot;color: rgb(193, 132, 1);&quot;&gt;media_entity&lt;/span&gt;&lt;span style=&quot;color: rgb(56, 58, 66);&quot;&gt; &lt;/span&gt;&lt;span style=&quot;color: rgb(166, 38, 164);&quot;&gt;*&lt;/span&gt;&lt;span style=&quot;color: rgb(228, 86, 73);&quot;&gt;entity&lt;/span&gt;&lt;span style=&quot;color: rgb(56, 58, 66);&quot;&gt;;&lt;/span&gt;&lt;/font&gt;&lt;/div&gt;&lt;div style=&quot;&quot;&gt;&lt;span style=&quot;color: rgb(56, 58, 66);&quot;&gt;&lt;font style=&quot;font-size: 11px;&quot;&gt;&amp;nbsp; &amp;nbsp; &amp;nbsp; &amp;nbsp; };&lt;/font&gt;&lt;/span&gt;&lt;/div&gt;&lt;div style=&quot;&quot;&gt;&lt;font style=&quot;font-size: 11px;&quot;&gt;&lt;span style=&quot;color: rgb(56, 58, 66);&quot;&gt;&amp;nbsp; &amp;nbsp; &amp;nbsp; &amp;nbsp; &lt;/span&gt;&lt;span style=&quot;color: rgb(166, 38, 164);&quot;&gt;struct&lt;/span&gt;&lt;span style=&quot;color: rgb(56, 58, 66);&quot;&gt; &lt;/span&gt;&lt;span style=&quot;color: rgb(193, 132, 1);&quot;&gt;media_link&lt;/span&gt;&lt;span style=&quot;color: rgb(56, 58, 66);&quot;&gt; &lt;/span&gt;&lt;span style=&quot;color: rgb(166, 38, 164);&quot;&gt;*&lt;/span&gt;&lt;span style=&quot;color: rgb(228, 86, 73);&quot;&gt;reverse&lt;/span&gt;&lt;span style=&quot;color: rgb(56, 58, 66);&quot;&gt;;&lt;/span&gt;&lt;/font&gt;&lt;/div&gt;&lt;div style=&quot;&quot;&gt;&lt;font style=&quot;font-size: 11px;&quot;&gt;&lt;span style=&quot;color: rgb(56, 58, 66);&quot;&gt;&amp;nbsp; &amp;nbsp; &amp;nbsp; &amp;nbsp; &lt;/span&gt;&lt;span style=&quot;color: rgb(166, 38, 164);&quot;&gt;unsigned&lt;/span&gt;&lt;span style=&quot;color: rgb(56, 58, 66);&quot;&gt; &lt;/span&gt;&lt;span style=&quot;color: rgb(166, 38, 164);&quot;&gt;long&lt;/span&gt;&lt;span style=&quot;color: rgb(56, 58, 66);&quot;&gt; &lt;/span&gt;&lt;span style=&quot;color: rgb(228, 86, 73);&quot;&gt;flags&lt;/span&gt;&lt;span style=&quot;color: rgb(56, 58, 66);&quot;&gt;;&lt;/span&gt;&lt;/font&gt;&lt;/div&gt;&lt;div style=&quot;&quot;&gt;&lt;font style=&quot;font-size: 11px;&quot;&gt;&lt;span style=&quot;color: rgb(56, 58, 66);&quot;&gt;&amp;nbsp; &amp;nbsp; &amp;nbsp; &amp;nbsp; &lt;/span&gt;&lt;span style=&quot;color: rgb(193, 132, 1);&quot;&gt;bool&lt;/span&gt;&lt;span style=&quot;color: rgb(56, 58, 66);&quot;&gt; &lt;/span&gt;&lt;span style=&quot;color: rgb(228, 86, 73);&quot;&gt;is_backlink&lt;/span&gt;&lt;span style=&quot;color: rgb(56, 58, 66);&quot;&gt;;&lt;/span&gt;&lt;/font&gt;&lt;/div&gt;&lt;div style=&quot;&quot;&gt;&lt;span style=&quot;color: rgb(56, 58, 66);&quot;&gt;&lt;font style=&quot;font-size: 11px;&quot;&gt;};&lt;/font&gt;&lt;/span&gt;&lt;/div&gt;&lt;/div&gt;" style="text;whiteSpace=wrap;html=1;" parent="1" vertex="1">
          <mxGeometry x="515" y="-380" width="280" height="330" as="geometry" />
        </mxCell>
        <mxCell id="y2ogkmQ-JljMTqqqrQBC-12" value="&lt;div style=&quot;color: rgb(56, 58, 66); background-color: rgb(245, 245, 245); font-family: Consolas, &amp;quot;Courier New&amp;quot;, monospace; font-weight: normal; line-height: 19px; white-space: pre;&quot;&gt;&lt;div style=&quot;&quot;&gt;&lt;font style=&quot;font-size: 11px;&quot;&gt;&lt;span style=&quot;color: rgb(166, 38, 164);&quot;&gt;struct&lt;/span&gt;&lt;span style=&quot;color: rgb(56, 58, 66);&quot;&gt; &lt;/span&gt;&lt;span style=&quot;color: rgb(193, 132, 1);&quot;&gt;media_entity&lt;/span&gt;&lt;span style=&quot;color: rgb(56, 58, 66);&quot;&gt; {&lt;/span&gt;&lt;/font&gt;&lt;/div&gt;&lt;div style=&quot;&quot;&gt;&lt;font style=&quot;font-size: 11px;&quot;&gt;&lt;span style=&quot;color: rgb(56, 58, 66);&quot;&gt;&amp;nbsp; &amp;nbsp; &amp;nbsp; &amp;nbsp; &lt;/span&gt;&lt;span style=&quot;color: rgb(166, 38, 164);&quot;&gt;struct&lt;/span&gt;&lt;span style=&quot;color: rgb(56, 58, 66);&quot;&gt; &lt;/span&gt;&lt;span style=&quot;color: rgb(193, 132, 1);&quot;&gt;media_gobj&lt;/span&gt;&lt;span style=&quot;color: rgb(56, 58, 66);&quot;&gt; &lt;/span&gt;&lt;span style=&quot;color: rgb(228, 86, 73);&quot;&gt;graph_obj&lt;/span&gt;&lt;span style=&quot;color: rgb(56, 58, 66);&quot;&gt;;&lt;/span&gt;&lt;/font&gt;&lt;/div&gt;&lt;div style=&quot;&quot;&gt;&lt;font style=&quot;font-size: 11px;&quot;&gt;&lt;span style=&quot;color: rgb(56, 58, 66);&quot;&gt;&amp;nbsp; &amp;nbsp; &amp;nbsp; &amp;nbsp; &lt;/span&gt;&lt;span style=&quot;color: rgb(166, 38, 164);&quot;&gt;const&lt;/span&gt;&lt;span style=&quot;color: rgb(56, 58, 66);&quot;&gt; &lt;/span&gt;&lt;span style=&quot;color: rgb(166, 38, 164);&quot;&gt;char&lt;/span&gt;&lt;span style=&quot;color: rgb(56, 58, 66);&quot;&gt; &lt;/span&gt;&lt;span style=&quot;color: rgb(166, 38, 164);&quot;&gt;*&lt;/span&gt;&lt;span style=&quot;color: rgb(228, 86, 73);&quot;&gt;name&lt;/span&gt;&lt;span style=&quot;color: rgb(56, 58, 66);&quot;&gt;;&lt;/span&gt;&lt;/font&gt;&lt;/div&gt;&lt;div style=&quot;&quot;&gt;&lt;font style=&quot;font-size: 11px;&quot;&gt;&lt;span style=&quot;color: rgb(56, 58, 66);&quot;&gt;&amp;nbsp; &amp;nbsp; &amp;nbsp; &amp;nbsp; &lt;/span&gt;&lt;span style=&quot;color: rgb(166, 38, 164);&quot;&gt;enum&lt;/span&gt;&lt;span style=&quot;color: rgb(56, 58, 66);&quot;&gt; &lt;/span&gt;&lt;span style=&quot;color: rgb(193, 132, 1);&quot;&gt;media_entity_type&lt;/span&gt;&lt;span style=&quot;color: rgb(56, 58, 66);&quot;&gt; &lt;/span&gt;&lt;span style=&quot;color: rgb(228, 86, 73);&quot;&gt;obj_type&lt;/span&gt;&lt;span style=&quot;color: rgb(56, 58, 66);&quot;&gt;;&lt;/span&gt;&lt;/font&gt;&lt;/div&gt;&lt;div style=&quot;&quot;&gt;&lt;font style=&quot;font-size: 11px;&quot;&gt;&lt;span style=&quot;color: rgb(56, 58, 66);&quot;&gt;&amp;nbsp; &amp;nbsp; &amp;nbsp; &amp;nbsp; &lt;/span&gt;&lt;span style=&quot;color: rgb(193, 132, 1);&quot;&gt;u32&lt;/span&gt;&lt;span style=&quot;color: rgb(56, 58, 66);&quot;&gt; &lt;/span&gt;&lt;span style=&quot;color: rgb(228, 86, 73);&quot;&gt;function&lt;/span&gt;&lt;span style=&quot;color: rgb(56, 58, 66);&quot;&gt;;&lt;/span&gt;&lt;/font&gt;&lt;/div&gt;&lt;div style=&quot;&quot;&gt;&lt;font style=&quot;font-size: 11px;&quot;&gt;&lt;span style=&quot;color: rgb(56, 58, 66);&quot;&gt;&amp;nbsp; &amp;nbsp; &amp;nbsp; &amp;nbsp; &lt;/span&gt;&lt;span style=&quot;color: rgb(166, 38, 164);&quot;&gt;unsigned&lt;/span&gt;&lt;span style=&quot;color: rgb(56, 58, 66);&quot;&gt; &lt;/span&gt;&lt;span style=&quot;color: rgb(166, 38, 164);&quot;&gt;long&lt;/span&gt;&lt;span style=&quot;color: rgb(56, 58, 66);&quot;&gt; &lt;/span&gt;&lt;span style=&quot;color: rgb(228, 86, 73);&quot;&gt;flags&lt;/span&gt;&lt;span style=&quot;color: rgb(56, 58, 66);&quot;&gt;;&lt;/span&gt;&lt;/font&gt;&lt;/div&gt;&lt;font style=&quot;font-size: 11px;&quot;&gt;&lt;br&gt;&lt;/font&gt;&lt;div style=&quot;&quot;&gt;&lt;font style=&quot;font-size: 11px;&quot;&gt;&lt;span style=&quot;color: rgb(56, 58, 66);&quot;&gt;&amp;nbsp; &amp;nbsp; &amp;nbsp; &amp;nbsp; &lt;/span&gt;&lt;span style=&quot;color: rgb(193, 132, 1);&quot;&gt;u16&lt;/span&gt;&lt;span style=&quot;color: rgb(56, 58, 66);&quot;&gt; &lt;/span&gt;&lt;span style=&quot;color: rgb(228, 86, 73);&quot;&gt;num_pads&lt;/span&gt;&lt;span style=&quot;color: rgb(56, 58, 66);&quot;&gt;;&lt;/span&gt;&lt;/font&gt;&lt;/div&gt;&lt;div style=&quot;&quot;&gt;&lt;font style=&quot;font-size: 11px;&quot;&gt;&lt;span style=&quot;color: rgb(56, 58, 66);&quot;&gt;&amp;nbsp; &amp;nbsp; &amp;nbsp; &amp;nbsp; &lt;/span&gt;&lt;span style=&quot;color: rgb(193, 132, 1);&quot;&gt;u16&lt;/span&gt;&lt;span style=&quot;color: rgb(56, 58, 66);&quot;&gt; &lt;/span&gt;&lt;span style=&quot;color: rgb(228, 86, 73);&quot;&gt;num_links&lt;/span&gt;&lt;span style=&quot;color: rgb(56, 58, 66);&quot;&gt;;&lt;/span&gt;&lt;/font&gt;&lt;/div&gt;&lt;div style=&quot;&quot;&gt;&lt;font style=&quot;font-size: 11px;&quot;&gt;&lt;span style=&quot;color: rgb(56, 58, 66);&quot;&gt;&amp;nbsp; &amp;nbsp; &amp;nbsp; &amp;nbsp; &lt;/span&gt;&lt;span style=&quot;color: rgb(193, 132, 1);&quot;&gt;u16&lt;/span&gt;&lt;span style=&quot;color: rgb(56, 58, 66);&quot;&gt; &lt;/span&gt;&lt;span style=&quot;color: rgb(228, 86, 73);&quot;&gt;num_backlinks&lt;/span&gt;&lt;span style=&quot;color: rgb(56, 58, 66);&quot;&gt;;&lt;/span&gt;&lt;/font&gt;&lt;/div&gt;&lt;div style=&quot;&quot;&gt;&lt;font style=&quot;font-size: 11px;&quot;&gt;&lt;span style=&quot;color: rgb(56, 58, 66);&quot;&gt;&amp;nbsp; &amp;nbsp; &amp;nbsp; &amp;nbsp; &lt;/span&gt;&lt;span style=&quot;color: rgb(166, 38, 164);&quot;&gt;int&lt;/span&gt;&lt;span style=&quot;color: rgb(56, 58, 66);&quot;&gt; &lt;/span&gt;&lt;span style=&quot;color: rgb(228, 86, 73);&quot;&gt;internal_idx&lt;/span&gt;&lt;span style=&quot;color: rgb(56, 58, 66);&quot;&gt;;&lt;/span&gt;&lt;/font&gt;&lt;/div&gt;&lt;font style=&quot;font-size: 11px;&quot;&gt;&lt;br&gt;&lt;/font&gt;&lt;div style=&quot;&quot;&gt;&lt;font style=&quot;font-size: 11px;&quot;&gt;&lt;span style=&quot;color: rgb(56, 58, 66);&quot;&gt;&amp;nbsp; &amp;nbsp; &amp;nbsp; &amp;nbsp; &lt;/span&gt;&lt;span style=&quot;color: rgb(166, 38, 164);&quot;&gt;struct&lt;/span&gt;&lt;span style=&quot;color: rgb(56, 58, 66);&quot;&gt; &lt;/span&gt;&lt;span style=&quot;color: rgb(193, 132, 1);&quot;&gt;media_pad&lt;/span&gt;&lt;span style=&quot;color: rgb(56, 58, 66);&quot;&gt; &lt;/span&gt;&lt;span style=&quot;color: rgb(166, 38, 164);&quot;&gt;*&lt;/span&gt;&lt;span style=&quot;color: rgb(228, 86, 73);&quot;&gt;pads&lt;/span&gt;&lt;span style=&quot;color: rgb(56, 58, 66);&quot;&gt;;&lt;/span&gt;&lt;/font&gt;&lt;/div&gt;&lt;div style=&quot;&quot;&gt;&lt;font style=&quot;font-size: 11px;&quot;&gt;&lt;span style=&quot;color: rgb(56, 58, 66);&quot;&gt;&amp;nbsp; &amp;nbsp; &amp;nbsp; &amp;nbsp; &lt;/span&gt;&lt;span style=&quot;color: rgb(166, 38, 164);&quot;&gt;struct&lt;/span&gt;&lt;span style=&quot;color: rgb(56, 58, 66);&quot;&gt; &lt;/span&gt;&lt;span style=&quot;color: rgb(193, 132, 1);&quot;&gt;list_head&lt;/span&gt;&lt;span style=&quot;color: rgb(56, 58, 66);&quot;&gt; &lt;/span&gt;&lt;span style=&quot;color: rgb(228, 86, 73);&quot;&gt;links&lt;/span&gt;&lt;span style=&quot;color: rgb(56, 58, 66);&quot;&gt;;&lt;/span&gt;&lt;/font&gt;&lt;/div&gt;&lt;font style=&quot;font-size: 11px;&quot;&gt;&lt;br&gt;&lt;/font&gt;&lt;div style=&quot;&quot;&gt;&lt;font style=&quot;font-size: 11px;&quot;&gt;&lt;span style=&quot;color: rgb(56, 58, 66);&quot;&gt;&amp;nbsp; &amp;nbsp; &amp;nbsp; &amp;nbsp; &lt;/span&gt;&lt;span style=&quot;color: rgb(166, 38, 164);&quot;&gt;const&lt;/span&gt;&lt;span style=&quot;color: rgb(56, 58, 66);&quot;&gt; &lt;/span&gt;&lt;span style=&quot;color: rgb(166, 38, 164);&quot;&gt;struct&lt;/span&gt;&lt;span style=&quot;color: rgb(56, 58, 66);&quot;&gt; &lt;/span&gt;&lt;span style=&quot;color: rgb(193, 132, 1);&quot;&gt;media_entity_operations&lt;/span&gt;&lt;span style=&quot;color: rgb(56, 58, 66);&quot;&gt; &lt;/span&gt;&lt;span style=&quot;color: rgb(166, 38, 164);&quot;&gt;*&lt;/span&gt;&lt;span style=&quot;color: rgb(228, 86, 73);&quot;&gt;ops&lt;/span&gt;&lt;span style=&quot;color: rgb(56, 58, 66);&quot;&gt;;&lt;/span&gt;&lt;/font&gt;&lt;/div&gt;&lt;font style=&quot;font-size: 11px;&quot;&gt;&lt;br&gt;&lt;/font&gt;&lt;div style=&quot;&quot;&gt;&lt;font style=&quot;font-size: 11px;&quot;&gt;&lt;span style=&quot;color: rgb(56, 58, 66);&quot;&gt;&amp;nbsp; &amp;nbsp; &amp;nbsp; &amp;nbsp; &lt;/span&gt;&lt;span style=&quot;color: rgb(166, 38, 164);&quot;&gt;int&lt;/span&gt;&lt;span style=&quot;color: rgb(56, 58, 66);&quot;&gt; &lt;/span&gt;&lt;span style=&quot;color: rgb(228, 86, 73);&quot;&gt;use_count&lt;/span&gt;&lt;span style=&quot;color: rgb(56, 58, 66);&quot;&gt;;&lt;/span&gt;&lt;/font&gt;&lt;/div&gt;&lt;font style=&quot;font-size: 11px;&quot;&gt;&lt;br&gt;&lt;/font&gt;&lt;div style=&quot;&quot;&gt;&lt;font style=&quot;font-size: 11px;&quot;&gt;&lt;span style=&quot;color: rgb(56, 58, 66);&quot;&gt;&amp;nbsp; &amp;nbsp; &amp;nbsp; &amp;nbsp; &lt;/span&gt;&lt;span style=&quot;color: rgb(166, 38, 164);&quot;&gt;union&lt;/span&gt;&lt;span style=&quot;color: rgb(56, 58, 66);&quot;&gt; {&lt;/span&gt;&lt;/font&gt;&lt;/div&gt;&lt;div style=&quot;&quot;&gt;&lt;font style=&quot;font-size: 11px;&quot;&gt;&lt;span style=&quot;color: rgb(56, 58, 66);&quot;&gt;&amp;nbsp; &amp;nbsp; &amp;nbsp; &amp;nbsp; &amp;nbsp; &amp;nbsp; &amp;nbsp; &amp;nbsp; &lt;/span&gt;&lt;span style=&quot;color: rgb(166, 38, 164);&quot;&gt;struct&lt;/span&gt;&lt;span style=&quot;color: rgb(56, 58, 66);&quot;&gt; {&lt;/span&gt;&lt;/font&gt;&lt;/div&gt;&lt;div style=&quot;&quot;&gt;&lt;font style=&quot;font-size: 11px;&quot;&gt;&lt;span style=&quot;color: rgb(56, 58, 66);&quot;&gt;&amp;nbsp; &amp;nbsp; &amp;nbsp; &amp;nbsp; &amp;nbsp; &amp;nbsp; &amp;nbsp; &amp;nbsp; &amp;nbsp; &amp;nbsp; &amp;nbsp; &amp;nbsp; &lt;/span&gt;&lt;span style=&quot;color: rgb(193, 132, 1);&quot;&gt;u32&lt;/span&gt;&lt;span style=&quot;color: rgb(56, 58, 66);&quot;&gt; &lt;/span&gt;&lt;span style=&quot;color: rgb(228, 86, 73);&quot;&gt;major&lt;/span&gt;&lt;span style=&quot;color: rgb(56, 58, 66);&quot;&gt;;&lt;/span&gt;&lt;/font&gt;&lt;/div&gt;&lt;div style=&quot;&quot;&gt;&lt;font style=&quot;font-size: 11px;&quot;&gt;&lt;span style=&quot;color: rgb(56, 58, 66);&quot;&gt;&amp;nbsp; &amp;nbsp; &amp;nbsp; &amp;nbsp; &amp;nbsp; &amp;nbsp; &amp;nbsp; &amp;nbsp; &amp;nbsp; &amp;nbsp; &amp;nbsp; &amp;nbsp; &lt;/span&gt;&lt;span style=&quot;color: rgb(193, 132, 1);&quot;&gt;u32&lt;/span&gt;&lt;span style=&quot;color: rgb(56, 58, 66);&quot;&gt; &lt;/span&gt;&lt;span style=&quot;color: rgb(228, 86, 73);&quot;&gt;minor&lt;/span&gt;&lt;span style=&quot;color: rgb(56, 58, 66);&quot;&gt;;&lt;/span&gt;&lt;/font&gt;&lt;/div&gt;&lt;div style=&quot;&quot;&gt;&lt;font style=&quot;font-size: 11px;&quot;&gt;&lt;span style=&quot;color: rgb(56, 58, 66);&quot;&gt;&amp;nbsp; &amp;nbsp; &amp;nbsp; &amp;nbsp; &amp;nbsp; &amp;nbsp; &amp;nbsp; &amp;nbsp; } &lt;/span&gt;&lt;span style=&quot;color: rgb(228, 86, 73);&quot;&gt;dev&lt;/span&gt;&lt;span style=&quot;color: rgb(56, 58, 66);&quot;&gt;;&lt;/span&gt;&lt;/font&gt;&lt;/div&gt;&lt;div style=&quot;&quot;&gt;&lt;font style=&quot;font-size: 11px;&quot;&gt;&lt;span style=&quot;color: rgb(56, 58, 66);&quot;&gt;&amp;nbsp; &amp;nbsp; &amp;nbsp; &amp;nbsp; } &lt;/span&gt;&lt;span style=&quot;color: rgb(228, 86, 73);&quot;&gt;info&lt;/span&gt;&lt;span style=&quot;color: rgb(56, 58, 66);&quot;&gt;;&lt;/span&gt;&lt;/font&gt;&lt;/div&gt;&lt;div style=&quot;&quot;&gt;&lt;span style=&quot;color: rgb(56, 58, 66);&quot;&gt;&lt;font style=&quot;font-size: 11px;&quot;&gt;};&lt;/font&gt;&lt;/span&gt;&lt;/div&gt;&lt;/div&gt;" style="text;whiteSpace=wrap;html=1;" parent="1" vertex="1">
          <mxGeometry x="140" y="-610" width="310" height="505" as="geometry" />
        </mxCell>
        <mxCell id="y2ogkmQ-JljMTqqqrQBC-13" value="" style="curved=1;endArrow=classic;html=1;rounded=0;entryX=-0.003;entryY=0.048;entryDx=0;entryDy=0;entryPerimeter=0;" parent="1" target="y2ogkmQ-JljMTqqqrQBC-11" edge="1">
          <mxGeometry width="50" height="50" relative="1" as="geometry">
            <mxPoint x="330" y="-350" as="sourcePoint" />
            <mxPoint x="390" y="-390" as="targetPoint" />
            <Array as="points">
              <mxPoint x="390" y="-340" />
            </Array>
          </mxGeometry>
        </mxCell>
        <mxCell id="y2ogkmQ-JljMTqqqrQBC-14" value="每个media_entity中保存了一组link链表" style="text;html=1;align=center;verticalAlign=middle;whiteSpace=wrap;rounded=0;" parent="1" vertex="1">
          <mxGeometry x="500" y="-400" width="230" height="30" as="geometry" />
        </mxCell>
        <mxCell id="y2ogkmQ-JljMTqqqrQBC-26" value="" style="edgeStyle=orthogonalEdgeStyle;rounded=0;orthogonalLoop=1;jettySize=auto;html=1;" parent="1" source="y2ogkmQ-JljMTqqqrQBC-15" target="y2ogkmQ-JljMTqqqrQBC-25" edge="1">
          <mxGeometry relative="1" as="geometry" />
        </mxCell>
        <mxCell id="y2ogkmQ-JljMTqqqrQBC-15" value="&lt;div style=&quot;color: #383a42;background-color: #f5f5f5;font-family: Consolas, &#39;Courier New&#39;, monospace;font-weight: normal;font-size: 14px;line-height: 19px;white-space: pre;&quot;&gt;&lt;div&gt;&lt;span style=&quot;color: #4078f2;&quot;&gt;media_entity_pads_init&lt;/span&gt;&lt;/div&gt;&lt;/div&gt;" style="text;whiteSpace=wrap;html=1;" parent="1" vertex="1">
          <mxGeometry x="-160" y="100" width="180" height="30" as="geometry" />
        </mxCell>
        <mxCell id="y2ogkmQ-JljMTqqqrQBC-16" value="subdev drivers创建自己的pads:" style="text;html=1;align=center;verticalAlign=middle;whiteSpace=wrap;rounded=0;" parent="1" vertex="1">
          <mxGeometry x="-220" y="80" width="170" height="30" as="geometry" />
        </mxCell>
        <mxCell id="y2ogkmQ-JljMTqqqrQBC-17" value="V4L2 driver:" style="text;html=1;align=center;verticalAlign=middle;whiteSpace=wrap;rounded=0;" parent="1" vertex="1">
          <mxGeometry x="130" y="80" width="75" height="30" as="geometry" />
        </mxCell>
        <mxCell id="y2ogkmQ-JljMTqqqrQBC-18" value="&lt;div style=&quot;color: rgb(56, 58, 66); background-color: rgb(245, 245, 245); font-family: Consolas, &amp;quot;Courier New&amp;quot;, monospace; font-weight: normal; line-height: 19px; white-space: pre;&quot;&gt;&lt;div style=&quot;&quot;&gt;&lt;font style=&quot;font-size: 10px;&quot;&gt;&lt;span style=&quot;color: rgb(166, 38, 164);&quot;&gt;struct&lt;/span&gt;&lt;span style=&quot;color: rgb(56, 58, 66);&quot;&gt; &lt;/span&gt;&lt;span style=&quot;color: rgb(193, 132, 1);&quot;&gt;media_pad&lt;/span&gt;&lt;span style=&quot;color: rgb(56, 58, 66);&quot;&gt; {&lt;/span&gt;&lt;/font&gt;&lt;/div&gt;&lt;div style=&quot;&quot;&gt;&lt;font style=&quot;font-size: 10px;&quot;&gt;&lt;span style=&quot;color: rgb(56, 58, 66);&quot;&gt;&amp;nbsp; &amp;nbsp; &amp;nbsp; &amp;nbsp; &lt;/span&gt;&lt;span style=&quot;color: rgb(166, 38, 164);&quot;&gt;struct&lt;/span&gt;&lt;span style=&quot;color: rgb(56, 58, 66);&quot;&gt; &lt;/span&gt;&lt;span style=&quot;color: rgb(193, 132, 1);&quot;&gt;media_gobj&lt;/span&gt;&lt;span style=&quot;color: rgb(56, 58, 66);&quot;&gt; &lt;/span&gt;&lt;span style=&quot;color: rgb(228, 86, 73);&quot;&gt;graph_obj&lt;/span&gt;&lt;span style=&quot;color: rgb(56, 58, 66);&quot;&gt;;&lt;/span&gt;&lt;/font&gt;&lt;/div&gt;&lt;div style=&quot;&quot;&gt;&lt;font style=&quot;font-size: 10px;&quot;&gt;&lt;span style=&quot;color: rgb(56, 58, 66);&quot;&gt;&amp;nbsp; &amp;nbsp; &amp;nbsp; &amp;nbsp; &lt;/span&gt;&lt;span style=&quot;color: rgb(166, 38, 164);&quot;&gt;struct&lt;/span&gt;&lt;span style=&quot;color: rgb(56, 58, 66);&quot;&gt; &lt;/span&gt;&lt;span style=&quot;color: rgb(193, 132, 1);&quot;&gt;media_entity&lt;/span&gt;&lt;span style=&quot;color: rgb(56, 58, 66);&quot;&gt; &lt;/span&gt;&lt;span style=&quot;color: rgb(166, 38, 164);&quot;&gt;*&lt;/span&gt;&lt;span style=&quot;color: rgb(228, 86, 73);&quot;&gt;entity&lt;/span&gt;&lt;span style=&quot;color: rgb(56, 58, 66);&quot;&gt;; // back p&lt;/span&gt;&lt;/font&gt;&lt;/div&gt;&lt;div style=&quot;&quot;&gt;&lt;font style=&quot;font-size: 10px;&quot;&gt;&lt;span style=&quot;color: rgb(56, 58, 66);&quot;&gt;&amp;nbsp; &amp;nbsp; &amp;nbsp; &amp;nbsp; &lt;/span&gt;&lt;span style=&quot;color: rgb(193, 132, 1);&quot;&gt;u16&lt;/span&gt;&lt;span style=&quot;color: rgb(56, 58, 66);&quot;&gt; &lt;/span&gt;&lt;span style=&quot;color: rgb(228, 86, 73);&quot;&gt;index&lt;/span&gt;&lt;span style=&quot;color: rgb(56, 58, 66);&quot;&gt;; // 第几个pad&lt;/span&gt;&lt;/font&gt;&lt;/div&gt;&lt;div style=&quot;&quot;&gt;&lt;font style=&quot;font-size: 10px;&quot;&gt;&lt;span style=&quot;color: rgb(56, 58, 66);&quot;&gt;&amp;nbsp; &amp;nbsp; &amp;nbsp; &amp;nbsp; &lt;/span&gt;&lt;span style=&quot;color: rgb(193, 132, 1);&quot;&gt;u16&lt;/span&gt;&lt;span style=&quot;color: rgb(56, 58, 66);&quot;&gt; &lt;/span&gt;&lt;span style=&quot;color: rgb(228, 86, 73);&quot;&gt;num_links&lt;/span&gt;&lt;span style=&quot;color: rgb(56, 58, 66);&quot;&gt;;&lt;/span&gt;&lt;/font&gt;&lt;/div&gt;&lt;div style=&quot;&quot;&gt;&lt;font style=&quot;font-size: 10px;&quot;&gt;&lt;span style=&quot;color: rgb(56, 58, 66);&quot;&gt;&amp;nbsp; &amp;nbsp; &amp;nbsp; &amp;nbsp; &lt;/span&gt;&lt;span style=&quot;color: rgb(166, 38, 164);&quot;&gt;enum&lt;/span&gt;&lt;span style=&quot;color: rgb(56, 58, 66);&quot;&gt; &lt;/span&gt;&lt;span style=&quot;color: rgb(193, 132, 1);&quot;&gt;media_pad_signal_type&lt;/span&gt;&lt;span style=&quot;color: rgb(56, 58, 66);&quot;&gt; &lt;/span&gt;&lt;span style=&quot;color: rgb(228, 86, 73);&quot;&gt;sig_type&lt;/span&gt;&lt;span style=&quot;color: rgb(56, 58, 66);&quot;&gt;;&lt;/span&gt;&lt;/font&gt;&lt;/div&gt;&lt;div style=&quot;&quot;&gt;&lt;font style=&quot;font-size: 10px;&quot;&gt;&lt;span style=&quot;color: rgb(56, 58, 66);&quot;&gt;&amp;nbsp; &amp;nbsp; &amp;nbsp; &amp;nbsp; &lt;/span&gt;&lt;span style=&quot;color: rgb(166, 38, 164);&quot;&gt;unsigned&lt;/span&gt;&lt;span style=&quot;color: rgb(56, 58, 66);&quot;&gt; &lt;/span&gt;&lt;span style=&quot;color: rgb(166, 38, 164);&quot;&gt;long&lt;/span&gt;&lt;span style=&quot;color: rgb(56, 58, 66);&quot;&gt; &lt;/span&gt;&lt;span style=&quot;color: rgb(228, 86, 73);&quot;&gt;flags&lt;/span&gt;&lt;span style=&quot;color: rgb(56, 58, 66);&quot;&gt;;&lt;/span&gt;&lt;/font&gt;&lt;/div&gt;&lt;div style=&quot;&quot;&gt;&lt;font style=&quot;font-size: 10px;&quot;&gt;&lt;span style=&quot;color: rgb(56, 58, 66);&quot;&gt;&amp;nbsp; &amp;nbsp; &amp;nbsp; &amp;nbsp; &lt;/span&gt;&lt;span style=&quot;color: rgb(166, 38, 164);&quot;&gt;struct&lt;/span&gt;&lt;span style=&quot;color: rgb(56, 58, 66);&quot;&gt; &lt;/span&gt;&lt;span style=&quot;color: rgb(193, 132, 1);&quot;&gt;media_pipeline&lt;/span&gt;&lt;span style=&quot;color: rgb(56, 58, 66);&quot;&gt; &lt;/span&gt;&lt;span style=&quot;color: rgb(166, 38, 164);&quot;&gt;*&lt;/span&gt;&lt;span style=&quot;color: rgb(228, 86, 73);&quot;&gt;pipe&lt;/span&gt;&lt;span style=&quot;color: rgb(56, 58, 66);&quot;&gt;;&lt;/span&gt;&lt;/font&gt;&lt;/div&gt;&lt;div style=&quot;&quot;&gt;&lt;span style=&quot;color: rgb(56, 58, 66);&quot;&gt;&lt;font style=&quot;font-size: 10px;&quot;&gt;};&lt;/font&gt;&lt;/span&gt;&lt;/div&gt;&lt;/div&gt;" style="text;whiteSpace=wrap;html=1;" parent="1" vertex="1">
          <mxGeometry x="515" y="-610" width="265" height="190" as="geometry" />
        </mxCell>
        <mxCell id="y2ogkmQ-JljMTqqqrQBC-19" value="" style="curved=1;endArrow=classic;html=1;rounded=0;entryX=-0.001;entryY=0.111;entryDx=0;entryDy=0;entryPerimeter=0;exitX=0.613;exitY=0.495;exitDx=0;exitDy=0;exitPerimeter=0;" parent="1" source="y2ogkmQ-JljMTqqqrQBC-12" target="y2ogkmQ-JljMTqqqrQBC-18" edge="1">
          <mxGeometry width="50" height="50" relative="1" as="geometry">
            <mxPoint x="340" y="-340" as="sourcePoint" />
            <mxPoint x="524" y="-354" as="targetPoint" />
            <Array as="points">
              <mxPoint x="400" y="-330" />
            </Array>
          </mxGeometry>
        </mxCell>
        <mxCell id="y2ogkmQ-JljMTqqqrQBC-20" value="每个media_entity中保存了一组pad数组" style="text;html=1;align=center;verticalAlign=middle;whiteSpace=wrap;rounded=0;" parent="1" vertex="1">
          <mxGeometry x="500" y="-630" width="230" height="30" as="geometry" />
        </mxCell>
        <mxCell id="y2ogkmQ-JljMTqqqrQBC-21" value="&lt;div style=&quot;color: rgb(56, 58, 66); background-color: rgb(245, 245, 245); font-family: Consolas, &amp;quot;Courier New&amp;quot;, monospace; font-weight: normal; line-height: 19px; white-space: pre;&quot;&gt;&lt;div style=&quot;&quot;&gt;&lt;font style=&quot;font-size: 11px;&quot;&gt;&lt;span style=&quot;color: rgb(166, 38, 164);&quot;&gt;struct&lt;/span&gt;&lt;span style=&quot;color: rgb(56, 58, 66);&quot;&gt; &lt;/span&gt;&lt;span style=&quot;color: rgb(193, 132, 1);&quot;&gt;media_gobj&lt;/span&gt;&lt;span style=&quot;color: rgb(56, 58, 66);&quot;&gt; {&lt;/span&gt;&lt;/font&gt;&lt;/div&gt;&lt;div style=&quot;&quot;&gt;&lt;font style=&quot;font-size: 11px;&quot;&gt;&lt;span style=&quot;color: rgb(56, 58, 66);&quot;&gt;&amp;nbsp; &amp;nbsp; &amp;nbsp; &amp;nbsp; &lt;/span&gt;&lt;span style=&quot;color: rgb(166, 38, 164);&quot;&gt;struct&lt;/span&gt;&lt;span style=&quot;color: rgb(56, 58, 66);&quot;&gt; &lt;/span&gt;&lt;span style=&quot;color: rgb(193, 132, 1);&quot;&gt;media_device&lt;/span&gt;&lt;span style=&quot;color: rgb(56, 58, 66);&quot;&gt; &amp;nbsp; &amp;nbsp; &lt;/span&gt;&lt;span style=&quot;color: rgb(166, 38, 164);&quot;&gt;*&lt;/span&gt;&lt;span style=&quot;color: rgb(228, 86, 73);&quot;&gt;mdev&lt;/span&gt;&lt;span style=&quot;color: rgb(56, 58, 66);&quot;&gt;;&lt;/span&gt;&lt;/font&gt;&lt;/div&gt;&lt;div style=&quot;&quot;&gt;&lt;font style=&quot;font-size: 11px;&quot;&gt;&lt;span style=&quot;color: rgb(56, 58, 66);&quot;&gt;&amp;nbsp; &amp;nbsp; &amp;nbsp; &amp;nbsp; &lt;/span&gt;&lt;span style=&quot;color: rgb(193, 132, 1);&quot;&gt;u32&lt;/span&gt;&lt;span style=&quot;color: rgb(56, 58, 66);&quot;&gt; &amp;nbsp; &amp;nbsp; &amp;nbsp; &amp;nbsp; &amp;nbsp; &amp;nbsp; &amp;nbsp; &amp;nbsp; &amp;nbsp; &amp;nbsp; &lt;/span&gt;&lt;span style=&quot;color: rgb(228, 86, 73);&quot;&gt;id&lt;/span&gt;&lt;span style=&quot;color: rgb(56, 58, 66);&quot;&gt;;&lt;/span&gt;&lt;/font&gt;&lt;/div&gt;&lt;div style=&quot;&quot;&gt;&lt;font style=&quot;font-size: 11px;&quot;&gt;&lt;span style=&quot;color: rgb(56, 58, 66);&quot;&gt;&amp;nbsp; &amp;nbsp; &amp;nbsp; &amp;nbsp; &lt;/span&gt;&lt;span style=&quot;color: rgb(166, 38, 164);&quot;&gt;struct&lt;/span&gt;&lt;span style=&quot;color: rgb(56, 58, 66);&quot;&gt; &lt;/span&gt;&lt;span style=&quot;color: rgb(193, 132, 1);&quot;&gt;list_head&lt;/span&gt;&lt;span style=&quot;color: rgb(56, 58, 66);&quot;&gt; &amp;nbsp; &amp;nbsp; &amp;nbsp; &amp;nbsp;&lt;/span&gt;&lt;span style=&quot;color: rgb(228, 86, 73);&quot;&gt;list&lt;/span&gt;&lt;span style=&quot;color: rgb(56, 58, 66);&quot;&gt;;&lt;/span&gt;&lt;/font&gt;&lt;/div&gt;&lt;div style=&quot;&quot;&gt;&lt;span style=&quot;color: rgb(56, 58, 66);&quot;&gt;&lt;font style=&quot;font-size: 11px;&quot;&gt;};&lt;/font&gt;&lt;/span&gt;&lt;/div&gt;&lt;/div&gt;" style="text;whiteSpace=wrap;html=1;" parent="1" vertex="1">
          <mxGeometry x="860" y="-450" width="240" height="110" as="geometry" />
        </mxCell>
        <mxCell id="y2ogkmQ-JljMTqqqrQBC-22" value="" style="curved=1;endArrow=classic;html=1;rounded=0;exitX=0.774;exitY=0.211;exitDx=0;exitDy=0;exitPerimeter=0;entryX=0.06;entryY=0.001;entryDx=0;entryDy=0;entryPerimeter=0;" parent="1" source="y2ogkmQ-JljMTqqqrQBC-18" target="y2ogkmQ-JljMTqqqrQBC-21" edge="1">
          <mxGeometry width="50" height="50" relative="1" as="geometry">
            <mxPoint x="920" y="-360" as="sourcePoint" />
            <mxPoint x="970" y="-410" as="targetPoint" />
            <Array as="points" />
          </mxGeometry>
        </mxCell>
        <mxCell id="y2ogkmQ-JljMTqqqrQBC-23" value="" style="curved=1;endArrow=classic;html=1;rounded=0;exitX=0.804;exitY=0.121;exitDx=0;exitDy=0;exitPerimeter=0;entryX=0.056;entryY=0.019;entryDx=0;entryDy=0;entryPerimeter=0;" parent="1" source="y2ogkmQ-JljMTqqqrQBC-11" target="y2ogkmQ-JljMTqqqrQBC-21" edge="1">
          <mxGeometry width="50" height="50" relative="1" as="geometry">
            <mxPoint x="800" y="-390" as="sourcePoint" />
            <mxPoint x="980" y="-260" as="targetPoint" />
            <Array as="points">
              <mxPoint x="800" y="-460" />
            </Array>
          </mxGeometry>
        </mxCell>
        <mxCell id="y2ogkmQ-JljMTqqqrQBC-24" value="&lt;div style=&quot;color: rgb(56, 58, 66); background-color: rgb(245, 245, 245); font-family: Consolas, &amp;quot;Courier New&amp;quot;, monospace; font-weight: normal; line-height: 19px; white-space: pre;&quot;&gt;&lt;div style=&quot;&quot;&gt;&lt;font style=&quot;font-size: 11px;&quot;&gt;&lt;span style=&quot;color: rgb(166, 38, 164);&quot;&gt;struct&lt;/span&gt;&lt;span style=&quot;color: rgb(56, 58, 66);&quot;&gt; &lt;/span&gt;&lt;span style=&quot;color: rgb(193, 132, 1);&quot;&gt;media_device&lt;/span&gt;&lt;span style=&quot;color: rgb(56, 58, 66);&quot;&gt; {&lt;/span&gt;&lt;/font&gt;&lt;/div&gt;&lt;div style=&quot;&quot;&gt;&lt;span style=&quot;color: rgb(160, 161, 167); font-style: italic;&quot;&gt;&lt;font style=&quot;font-size: 11px;&quot;&gt;&amp;nbsp; &amp;nbsp; &amp;nbsp; &amp;nbsp; /* dev-&amp;gt;driver_data points to this struct. */&lt;/font&gt;&lt;/span&gt;&lt;/div&gt;&lt;div style=&quot;&quot;&gt;&lt;font style=&quot;font-size: 11px;&quot;&gt;&lt;span style=&quot;color: rgb(56, 58, 66);&quot;&gt;&amp;nbsp; &amp;nbsp; &amp;nbsp; &amp;nbsp; &lt;/span&gt;&lt;span style=&quot;color: rgb(166, 38, 164);&quot;&gt;struct&lt;/span&gt;&lt;span style=&quot;color: rgb(56, 58, 66);&quot;&gt; &lt;/span&gt;&lt;span style=&quot;color: rgb(193, 132, 1);&quot;&gt;device&lt;/span&gt;&lt;span style=&quot;color: rgb(56, 58, 66);&quot;&gt; &lt;/span&gt;&lt;span style=&quot;color: rgb(166, 38, 164);&quot;&gt;*&lt;/span&gt;&lt;span style=&quot;color: rgb(228, 86, 73);&quot;&gt;dev&lt;/span&gt;&lt;span style=&quot;color: rgb(56, 58, 66);&quot;&gt;;&lt;/span&gt;&lt;/font&gt;&lt;/div&gt;&lt;div style=&quot;&quot;&gt;&lt;font style=&quot;font-size: 11px;&quot;&gt;&lt;span style=&quot;color: rgb(56, 58, 66);&quot;&gt;&amp;nbsp; &amp;nbsp; &amp;nbsp; &amp;nbsp; &lt;/span&gt;&lt;span style=&quot;color: rgb(166, 38, 164);&quot;&gt;struct&lt;/span&gt;&lt;span style=&quot;color: rgb(56, 58, 66);&quot;&gt; &lt;/span&gt;&lt;span style=&quot;color: rgb(193, 132, 1);&quot;&gt;media_devnode&lt;/span&gt;&lt;span style=&quot;color: rgb(56, 58, 66);&quot;&gt; &lt;/span&gt;&lt;span style=&quot;color: rgb(166, 38, 164);&quot;&gt;*&lt;/span&gt;&lt;span style=&quot;color: rgb(228, 86, 73);&quot;&gt;devnode&lt;/span&gt;&lt;span style=&quot;color: rgb(56, 58, 66);&quot;&gt;;&lt;/span&gt;&lt;/font&gt;&lt;/div&gt;&lt;font style=&quot;font-size: 11px;&quot;&gt;&lt;br&gt;&lt;/font&gt;&lt;div style=&quot;&quot;&gt;&lt;font style=&quot;font-size: 11px;&quot;&gt;&lt;span style=&quot;color: rgb(56, 58, 66);&quot;&gt;&amp;nbsp; &amp;nbsp; &amp;nbsp; &amp;nbsp; &lt;/span&gt;&lt;span style=&quot;color: rgb(166, 38, 164);&quot;&gt;char&lt;/span&gt;&lt;span style=&quot;color: rgb(56, 58, 66);&quot;&gt; &lt;/span&gt;&lt;span style=&quot;color: rgb(228, 86, 73);&quot;&gt;model&lt;/span&gt;&lt;span style=&quot;color: rgb(56, 58, 66);&quot;&gt;[&lt;/span&gt;&lt;span style=&quot;color: rgb(152, 104, 1);&quot;&gt;32&lt;/span&gt;&lt;span style=&quot;color: rgb(56, 58, 66);&quot;&gt;];&lt;/span&gt;&lt;/font&gt;&lt;/div&gt;&lt;div style=&quot;&quot;&gt;&lt;font style=&quot;font-size: 11px;&quot;&gt;&lt;span style=&quot;color: rgb(56, 58, 66);&quot;&gt;&amp;nbsp; &amp;nbsp; &amp;nbsp; &amp;nbsp; &lt;/span&gt;&lt;span style=&quot;color: rgb(166, 38, 164);&quot;&gt;char&lt;/span&gt;&lt;span style=&quot;color: rgb(56, 58, 66);&quot;&gt; &lt;/span&gt;&lt;span style=&quot;color: rgb(228, 86, 73);&quot;&gt;driver_name&lt;/span&gt;&lt;span style=&quot;color: rgb(56, 58, 66);&quot;&gt;[&lt;/span&gt;&lt;span style=&quot;color: rgb(152, 104, 1);&quot;&gt;32&lt;/span&gt;&lt;span style=&quot;color: rgb(56, 58, 66);&quot;&gt;];&lt;/span&gt;&lt;/font&gt;&lt;/div&gt;&lt;div style=&quot;&quot;&gt;&lt;font style=&quot;font-size: 11px;&quot;&gt;&lt;span style=&quot;color: rgb(56, 58, 66);&quot;&gt;&amp;nbsp; &amp;nbsp; &amp;nbsp; &amp;nbsp; &lt;/span&gt;&lt;span style=&quot;color: rgb(166, 38, 164);&quot;&gt;char&lt;/span&gt;&lt;span style=&quot;color: rgb(56, 58, 66);&quot;&gt; &lt;/span&gt;&lt;span style=&quot;color: rgb(228, 86, 73);&quot;&gt;serial&lt;/span&gt;&lt;span style=&quot;color: rgb(56, 58, 66);&quot;&gt;[&lt;/span&gt;&lt;span style=&quot;color: rgb(152, 104, 1);&quot;&gt;40&lt;/span&gt;&lt;span style=&quot;color: rgb(56, 58, 66);&quot;&gt;];&lt;/span&gt;&lt;/font&gt;&lt;/div&gt;&lt;div style=&quot;&quot;&gt;&lt;font style=&quot;font-size: 11px;&quot;&gt;&lt;span style=&quot;color: rgb(56, 58, 66);&quot;&gt;&amp;nbsp; &amp;nbsp; &amp;nbsp; &amp;nbsp; &lt;/span&gt;&lt;span style=&quot;color: rgb(166, 38, 164);&quot;&gt;char&lt;/span&gt;&lt;span style=&quot;color: rgb(56, 58, 66);&quot;&gt; &lt;/span&gt;&lt;span style=&quot;color: rgb(228, 86, 73);&quot;&gt;bus_info&lt;/span&gt;&lt;span style=&quot;color: rgb(56, 58, 66);&quot;&gt;[&lt;/span&gt;&lt;span style=&quot;color: rgb(152, 104, 1);&quot;&gt;32&lt;/span&gt;&lt;span style=&quot;color: rgb(56, 58, 66);&quot;&gt;];&lt;/span&gt;&lt;/font&gt;&lt;/div&gt;&lt;div style=&quot;&quot;&gt;&lt;font style=&quot;font-size: 11px;&quot;&gt;&lt;span style=&quot;color: rgb(56, 58, 66);&quot;&gt;&amp;nbsp; &amp;nbsp; &amp;nbsp; &amp;nbsp; &lt;/span&gt;&lt;span style=&quot;color: rgb(193, 132, 1);&quot;&gt;u32&lt;/span&gt;&lt;span style=&quot;color: rgb(56, 58, 66);&quot;&gt; &lt;/span&gt;&lt;span style=&quot;color: rgb(228, 86, 73);&quot;&gt;hw_revision&lt;/span&gt;&lt;span style=&quot;color: rgb(56, 58, 66);&quot;&gt;;&lt;/span&gt;&lt;/font&gt;&lt;/div&gt;&lt;font style=&quot;font-size: 11px;&quot;&gt;&lt;br&gt;&lt;/font&gt;&lt;div style=&quot;&quot;&gt;&lt;font style=&quot;font-size: 11px;&quot;&gt;&lt;span style=&quot;color: rgb(56, 58, 66);&quot;&gt;&amp;nbsp; &amp;nbsp; &amp;nbsp; &amp;nbsp; &lt;/span&gt;&lt;span style=&quot;color: rgb(193, 132, 1);&quot;&gt;u64&lt;/span&gt;&lt;span style=&quot;color: rgb(56, 58, 66);&quot;&gt; &lt;/span&gt;&lt;span style=&quot;color: rgb(228, 86, 73);&quot;&gt;topology_version&lt;/span&gt;&lt;span style=&quot;color: rgb(56, 58, 66);&quot;&gt;;&lt;/span&gt;&lt;/font&gt;&lt;/div&gt;&lt;font style=&quot;font-size: 11px;&quot;&gt;&lt;br&gt;&lt;/font&gt;&lt;div style=&quot;&quot;&gt;&lt;font style=&quot;font-size: 11px;&quot;&gt;&lt;span style=&quot;color: rgb(56, 58, 66);&quot;&gt;&amp;nbsp; &amp;nbsp; &amp;nbsp; &amp;nbsp; &lt;/span&gt;&lt;span style=&quot;color: rgb(193, 132, 1);&quot;&gt;u32&lt;/span&gt;&lt;span style=&quot;color: rgb(56, 58, 66);&quot;&gt; &lt;/span&gt;&lt;span style=&quot;color: rgb(228, 86, 73);&quot;&gt;id&lt;/span&gt;&lt;span style=&quot;color: rgb(56, 58, 66);&quot;&gt;;&lt;/span&gt;&lt;/font&gt;&lt;/div&gt;&lt;div style=&quot;&quot;&gt;&lt;font style=&quot;font-size: 11px;&quot;&gt;&lt;span style=&quot;color: rgb(56, 58, 66);&quot;&gt;&amp;nbsp; &amp;nbsp; &amp;nbsp; &amp;nbsp; &lt;/span&gt;&lt;span style=&quot;color: rgb(166, 38, 164);&quot;&gt;struct&lt;/span&gt;&lt;span style=&quot;color: rgb(56, 58, 66);&quot;&gt; &lt;/span&gt;&lt;span style=&quot;color: rgb(193, 132, 1);&quot;&gt;ida&lt;/span&gt;&lt;span style=&quot;color: rgb(56, 58, 66);&quot;&gt; &lt;/span&gt;&lt;span style=&quot;color: rgb(228, 86, 73);&quot;&gt;entity_internal_idx&lt;/span&gt;&lt;span style=&quot;color: rgb(56, 58, 66);&quot;&gt;;&lt;/span&gt;&lt;/font&gt;&lt;/div&gt;&lt;div style=&quot;&quot;&gt;&lt;font style=&quot;font-size: 11px;&quot;&gt;&lt;span style=&quot;color: rgb(56, 58, 66);&quot;&gt;&amp;nbsp; &amp;nbsp; &amp;nbsp; &amp;nbsp; &lt;/span&gt;&lt;span style=&quot;color: rgb(166, 38, 164);&quot;&gt;int&lt;/span&gt;&lt;span style=&quot;color: rgb(56, 58, 66);&quot;&gt; &lt;/span&gt;&lt;span style=&quot;color: rgb(228, 86, 73);&quot;&gt;entity_internal_idx_max&lt;/span&gt;&lt;span style=&quot;color: rgb(56, 58, 66);&quot;&gt;;&lt;/span&gt;&lt;/font&gt;&lt;/div&gt;&lt;font style=&quot;font-size: 11px;&quot;&gt;&lt;br&gt;&lt;/font&gt;&lt;div style=&quot;&quot;&gt;&lt;font style=&quot;font-size: 11px;&quot;&gt;&lt;span style=&quot;color: rgb(56, 58, 66);&quot;&gt;&amp;nbsp; &amp;nbsp; &amp;nbsp; &amp;nbsp; &lt;/span&gt;&lt;span style=&quot;color: rgb(166, 38, 164);&quot;&gt;struct&lt;/span&gt;&lt;span style=&quot;color: rgb(56, 58, 66);&quot;&gt; &lt;/span&gt;&lt;span style=&quot;color: rgb(193, 132, 1);&quot;&gt;list_head&lt;/span&gt;&lt;span style=&quot;color: rgb(56, 58, 66);&quot;&gt; &lt;/span&gt;&lt;span style=&quot;color: rgb(228, 86, 73);&quot;&gt;entities&lt;/span&gt;&lt;span style=&quot;color: rgb(56, 58, 66);&quot;&gt;;&lt;/span&gt;&lt;/font&gt;&lt;/div&gt;&lt;div style=&quot;&quot;&gt;&lt;font style=&quot;font-size: 11px;&quot;&gt;&lt;span style=&quot;color: rgb(56, 58, 66);&quot;&gt;&amp;nbsp; &amp;nbsp; &amp;nbsp; &amp;nbsp; &lt;/span&gt;&lt;span style=&quot;color: rgb(166, 38, 164);&quot;&gt;struct&lt;/span&gt;&lt;span style=&quot;color: rgb(56, 58, 66);&quot;&gt; &lt;/span&gt;&lt;span style=&quot;color: rgb(193, 132, 1);&quot;&gt;list_head&lt;/span&gt;&lt;span style=&quot;color: rgb(56, 58, 66);&quot;&gt; &lt;/span&gt;&lt;span style=&quot;color: rgb(228, 86, 73);&quot;&gt;interfaces&lt;/span&gt;&lt;span style=&quot;color: rgb(56, 58, 66);&quot;&gt;;&lt;/span&gt;&lt;/font&gt;&lt;/div&gt;&lt;div style=&quot;&quot;&gt;&lt;font style=&quot;font-size: 11px;&quot;&gt;&lt;span style=&quot;color: rgb(56, 58, 66);&quot;&gt;&amp;nbsp; &amp;nbsp; &amp;nbsp; &amp;nbsp; &lt;/span&gt;&lt;span style=&quot;color: rgb(166, 38, 164);&quot;&gt;struct&lt;/span&gt;&lt;span style=&quot;color: rgb(56, 58, 66);&quot;&gt; &lt;/span&gt;&lt;span style=&quot;color: rgb(193, 132, 1);&quot;&gt;list_head&lt;/span&gt;&lt;span style=&quot;color: rgb(56, 58, 66);&quot;&gt; &lt;/span&gt;&lt;span style=&quot;color: rgb(228, 86, 73);&quot;&gt;pads&lt;/span&gt;&lt;span style=&quot;color: rgb(56, 58, 66);&quot;&gt;;&lt;/span&gt;&lt;/font&gt;&lt;/div&gt;&lt;div style=&quot;&quot;&gt;&lt;font style=&quot;font-size: 11px;&quot;&gt;&lt;span style=&quot;color: rgb(56, 58, 66);&quot;&gt;&amp;nbsp; &amp;nbsp; &amp;nbsp; &amp;nbsp; &lt;/span&gt;&lt;span style=&quot;color: rgb(166, 38, 164);&quot;&gt;struct&lt;/span&gt;&lt;span style=&quot;color: rgb(56, 58, 66);&quot;&gt; &lt;/span&gt;&lt;span style=&quot;color: rgb(193, 132, 1);&quot;&gt;list_head&lt;/span&gt;&lt;span style=&quot;color: rgb(56, 58, 66);&quot;&gt; &lt;/span&gt;&lt;span style=&quot;color: rgb(228, 86, 73);&quot;&gt;links&lt;/span&gt;&lt;span style=&quot;color: rgb(56, 58, 66);&quot;&gt;;&lt;/span&gt;&lt;/font&gt;&lt;/div&gt;&lt;font style=&quot;font-size: 11px;&quot;&gt;&lt;br&gt;&lt;/font&gt;&lt;div style=&quot;&quot;&gt;&lt;span style=&quot;color: rgb(160, 161, 167); font-style: italic;&quot;&gt;&lt;font style=&quot;font-size: 11px;&quot;&gt;&amp;nbsp; &amp;nbsp; &amp;nbsp; &amp;nbsp; /* notify callback list invoked when a new entity is registered */&lt;/font&gt;&lt;/span&gt;&lt;/div&gt;&lt;div style=&quot;&quot;&gt;&lt;font style=&quot;font-size: 11px;&quot;&gt;&lt;span style=&quot;color: rgb(56, 58, 66);&quot;&gt;&amp;nbsp; &amp;nbsp; &amp;nbsp; &amp;nbsp; &lt;/span&gt;&lt;span style=&quot;color: rgb(166, 38, 164);&quot;&gt;struct&lt;/span&gt;&lt;span style=&quot;color: rgb(56, 58, 66);&quot;&gt; &lt;/span&gt;&lt;span style=&quot;color: rgb(193, 132, 1);&quot;&gt;list_head&lt;/span&gt;&lt;span style=&quot;color: rgb(56, 58, 66);&quot;&gt; &lt;/span&gt;&lt;span style=&quot;color: rgb(228, 86, 73);&quot;&gt;entity_notify&lt;/span&gt;&lt;span style=&quot;color: rgb(56, 58, 66);&quot;&gt;;&lt;/span&gt;&lt;/font&gt;&lt;/div&gt;&lt;font style=&quot;font-size: 11px;&quot;&gt;&lt;br&gt;&lt;/font&gt;&lt;div style=&quot;&quot;&gt;&lt;span style=&quot;color: rgb(160, 161, 167); font-style: italic;&quot;&gt;&lt;font style=&quot;font-size: 11px;&quot;&gt;&amp;nbsp; &amp;nbsp; &amp;nbsp; &amp;nbsp; /* Serializes graph operations. */&lt;/font&gt;&lt;/span&gt;&lt;/div&gt;&lt;div style=&quot;&quot;&gt;&lt;font style=&quot;font-size: 11px;&quot;&gt;&lt;span style=&quot;color: rgb(56, 58, 66);&quot;&gt;&amp;nbsp; &amp;nbsp; &amp;nbsp; &amp;nbsp; &lt;/span&gt;&lt;span style=&quot;color: rgb(166, 38, 164);&quot;&gt;struct&lt;/span&gt;&lt;span style=&quot;color: rgb(56, 58, 66);&quot;&gt; &lt;/span&gt;&lt;span style=&quot;color: rgb(193, 132, 1);&quot;&gt;mutex&lt;/span&gt;&lt;span style=&quot;color: rgb(56, 58, 66);&quot;&gt; &lt;/span&gt;&lt;span style=&quot;color: rgb(228, 86, 73);&quot;&gt;graph_mutex&lt;/span&gt;&lt;span style=&quot;color: rgb(56, 58, 66);&quot;&gt;;&lt;/span&gt;&lt;/font&gt;&lt;/div&gt;&lt;div style=&quot;&quot;&gt;&lt;font style=&quot;font-size: 11px;&quot;&gt;&lt;span style=&quot;color: rgb(56, 58, 66);&quot;&gt;&amp;nbsp; &amp;nbsp; &amp;nbsp; &amp;nbsp; &lt;/span&gt;&lt;span style=&quot;color: rgb(166, 38, 164);&quot;&gt;struct&lt;/span&gt;&lt;span style=&quot;color: rgb(56, 58, 66);&quot;&gt; &lt;/span&gt;&lt;span style=&quot;color: rgb(193, 132, 1);&quot;&gt;media_graph&lt;/span&gt;&lt;span style=&quot;color: rgb(56, 58, 66);&quot;&gt; &lt;/span&gt;&lt;span style=&quot;color: rgb(228, 86, 73);&quot;&gt;pm_count_walk&lt;/span&gt;&lt;span style=&quot;color: rgb(56, 58, 66);&quot;&gt;;&lt;/span&gt;&lt;/font&gt;&lt;/div&gt;&lt;font style=&quot;font-size: 11px;&quot;&gt;&lt;br&gt;&lt;/font&gt;&lt;div style=&quot;&quot;&gt;&lt;font style=&quot;font-size: 11px;&quot;&gt;&lt;span style=&quot;color: rgb(56, 58, 66);&quot;&gt;&amp;nbsp; &amp;nbsp; &amp;nbsp; &amp;nbsp; &lt;/span&gt;&lt;span style=&quot;color: rgb(166, 38, 164);&quot;&gt;void&lt;/span&gt;&lt;span style=&quot;color: rgb(56, 58, 66);&quot;&gt; &lt;/span&gt;&lt;span style=&quot;color: rgb(166, 38, 164);&quot;&gt;*&lt;/span&gt;&lt;span style=&quot;color: rgb(228, 86, 73);&quot;&gt;source_priv&lt;/span&gt;&lt;span style=&quot;color: rgb(56, 58, 66);&quot;&gt;;&lt;/span&gt;&lt;/font&gt;&lt;/div&gt;&lt;div style=&quot;&quot;&gt;&lt;font style=&quot;font-size: 11px;&quot;&gt;&lt;span style=&quot;color: rgb(56, 58, 66);&quot;&gt;&amp;nbsp; &amp;nbsp; &amp;nbsp; &amp;nbsp; &lt;/span&gt;&lt;span style=&quot;color: rgb(166, 38, 164);&quot;&gt;int&lt;/span&gt;&lt;span style=&quot;color: rgb(56, 58, 66);&quot;&gt; (*&lt;/span&gt;&lt;span style=&quot;color: rgb(228, 86, 73);&quot;&gt;enable_source&lt;/span&gt;&lt;span style=&quot;color: rgb(56, 58, 66);&quot;&gt;)(&lt;/span&gt;&lt;span style=&quot;color: rgb(166, 38, 164);&quot;&gt;struct&lt;/span&gt;&lt;span style=&quot;color: rgb(56, 58, 66);&quot;&gt; &lt;/span&gt;&lt;span style=&quot;color: rgb(193, 132, 1);&quot;&gt;media_entity&lt;/span&gt;&lt;span style=&quot;color: rgb(56, 58, 66);&quot;&gt; &lt;/span&gt;&lt;span style=&quot;color: rgb(166, 38, 164);&quot;&gt;*&lt;/span&gt;&lt;span style=&quot;color: rgb(0, 175, 175);&quot;&gt;entity&lt;/span&gt;&lt;span style=&quot;color: rgb(56, 58, 66);&quot;&gt;,&lt;/span&gt;&lt;/font&gt;&lt;/div&gt;&lt;div style=&quot;&quot;&gt;&lt;font style=&quot;font-size: 11px;&quot;&gt;&lt;span style=&quot;color: rgb(56, 58, 66);&quot;&gt;&amp;nbsp; &amp;nbsp; &amp;nbsp; &amp;nbsp; &amp;nbsp; &amp;nbsp; &amp;nbsp; &amp;nbsp; &amp;nbsp; &amp;nbsp; &amp;nbsp; &amp;nbsp; &amp;nbsp; &amp;nbsp; &amp;nbsp;&lt;/span&gt;&lt;span style=&quot;color: rgb(166, 38, 164);&quot;&gt;struct&lt;/span&gt;&lt;span style=&quot;color: rgb(56, 58, 66);&quot;&gt; &lt;/span&gt;&lt;span style=&quot;color: rgb(193, 132, 1);&quot;&gt;media_pipeline&lt;/span&gt;&lt;span style=&quot;color: rgb(56, 58, 66);&quot;&gt; &lt;/span&gt;&lt;span style=&quot;color: rgb(166, 38, 164);&quot;&gt;*&lt;/span&gt;&lt;span style=&quot;color: rgb(0, 175, 175);&quot;&gt;pipe&lt;/span&gt;&lt;span style=&quot;color: rgb(56, 58, 66);&quot;&gt;);&lt;/span&gt;&lt;/font&gt;&lt;/div&gt;&lt;div style=&quot;&quot;&gt;&lt;font style=&quot;font-size: 11px;&quot;&gt;&lt;span style=&quot;color: rgb(56, 58, 66);&quot;&gt;&amp;nbsp; &amp;nbsp; &amp;nbsp; &amp;nbsp; &lt;/span&gt;&lt;span style=&quot;color: rgb(166, 38, 164);&quot;&gt;void&lt;/span&gt;&lt;span style=&quot;color: rgb(56, 58, 66);&quot;&gt; (*&lt;/span&gt;&lt;span style=&quot;color: rgb(228, 86, 73);&quot;&gt;disable_source&lt;/span&gt;&lt;span style=&quot;color: rgb(56, 58, 66);&quot;&gt;)(&lt;/span&gt;&lt;span style=&quot;color: rgb(166, 38, 164);&quot;&gt;struct&lt;/span&gt;&lt;span style=&quot;color: rgb(56, 58, 66);&quot;&gt; &lt;/span&gt;&lt;span style=&quot;color: rgb(193, 132, 1);&quot;&gt;media_entity&lt;/span&gt;&lt;span style=&quot;color: rgb(56, 58, 66);&quot;&gt; &lt;/span&gt;&lt;span style=&quot;color: rgb(166, 38, 164);&quot;&gt;*&lt;/span&gt;&lt;span style=&quot;color: rgb(0, 175, 175);&quot;&gt;entity&lt;/span&gt;&lt;span style=&quot;color: rgb(56, 58, 66);&quot;&gt;);&lt;/span&gt;&lt;/font&gt;&lt;/div&gt;&lt;font style=&quot;font-size: 11px;&quot;&gt;&lt;br&gt;&lt;/font&gt;&lt;div style=&quot;&quot;&gt;&lt;font style=&quot;font-size: 11px;&quot;&gt;&lt;span style=&quot;color: rgb(56, 58, 66);&quot;&gt;&amp;nbsp; &amp;nbsp; &amp;nbsp; &amp;nbsp; &lt;/span&gt;&lt;span style=&quot;color: rgb(166, 38, 164);&quot;&gt;const&lt;/span&gt;&lt;span style=&quot;color: rgb(56, 58, 66);&quot;&gt; &lt;/span&gt;&lt;span style=&quot;color: rgb(166, 38, 164);&quot;&gt;struct&lt;/span&gt;&lt;span style=&quot;color: rgb(56, 58, 66);&quot;&gt; &lt;/span&gt;&lt;span style=&quot;color: rgb(193, 132, 1);&quot;&gt;media_device_ops&lt;/span&gt;&lt;span style=&quot;color: rgb(56, 58, 66);&quot;&gt; &lt;/span&gt;&lt;span style=&quot;color: rgb(166, 38, 164);&quot;&gt;*&lt;/span&gt;&lt;span style=&quot;color: rgb(228, 86, 73);&quot;&gt;ops&lt;/span&gt;&lt;span style=&quot;color: rgb(56, 58, 66);&quot;&gt;;&lt;/span&gt;&lt;/font&gt;&lt;/div&gt;&lt;font style=&quot;font-size: 11px;&quot;&gt;&lt;br&gt;&lt;/font&gt;&lt;div style=&quot;&quot;&gt;&lt;font style=&quot;font-size: 11px;&quot;&gt;&lt;span style=&quot;color: rgb(56, 58, 66);&quot;&gt;&amp;nbsp; &amp;nbsp; &amp;nbsp; &amp;nbsp; &lt;/span&gt;&lt;span style=&quot;color: rgb(166, 38, 164);&quot;&gt;struct&lt;/span&gt;&lt;span style=&quot;color: rgb(56, 58, 66);&quot;&gt; &lt;/span&gt;&lt;span style=&quot;color: rgb(193, 132, 1);&quot;&gt;mutex&lt;/span&gt;&lt;span style=&quot;color: rgb(56, 58, 66);&quot;&gt; &lt;/span&gt;&lt;span style=&quot;color: rgb(228, 86, 73);&quot;&gt;req_queue_mutex&lt;/span&gt;&lt;span style=&quot;color: rgb(56, 58, 66);&quot;&gt;;&lt;/span&gt;&lt;/font&gt;&lt;/div&gt;&lt;div style=&quot;&quot;&gt;&lt;font style=&quot;font-size: 11px;&quot;&gt;&lt;span style=&quot;color: rgb(56, 58, 66);&quot;&gt;&amp;nbsp; &amp;nbsp; &amp;nbsp; &amp;nbsp; &lt;/span&gt;&lt;span style=&quot;color: rgb(193, 132, 1);&quot;&gt;atomic_t&lt;/span&gt;&lt;span style=&quot;color: rgb(56, 58, 66);&quot;&gt; &lt;/span&gt;&lt;span style=&quot;color: rgb(228, 86, 73);&quot;&gt;request_id&lt;/span&gt;&lt;span style=&quot;color: rgb(56, 58, 66);&quot;&gt;;&lt;/span&gt;&lt;/font&gt;&lt;/div&gt;&lt;div style=&quot;&quot;&gt;&lt;span style=&quot;color: rgb(56, 58, 66);&quot;&gt;&lt;font style=&quot;font-size: 11px;&quot;&gt;};&lt;/font&gt;&lt;/span&gt;&lt;/div&gt;&lt;/div&gt;" style="text;whiteSpace=wrap;html=1;" parent="1" vertex="1">
          <mxGeometry x="-400" y="-720" width="460" height="760" as="geometry" />
        </mxCell>
        <mxCell id="y2ogkmQ-JljMTqqqrQBC-29" value="" style="edgeStyle=orthogonalEdgeStyle;rounded=0;orthogonalLoop=1;jettySize=auto;html=1;" parent="1" source="y2ogkmQ-JljMTqqqrQBC-25" target="y2ogkmQ-JljMTqqqrQBC-28" edge="1">
          <mxGeometry relative="1" as="geometry" />
        </mxCell>
        <mxCell id="y2ogkmQ-JljMTqqqrQBC-25" value="&lt;div style=&quot;color: rgb(56, 58, 66); background-color: rgb(245, 245, 245); font-family: Consolas, &amp;quot;Courier New&amp;quot;, monospace; font-weight: normal; font-size: 14px; line-height: 19px; white-space: pre;&quot;&gt;&lt;div&gt;&lt;span style=&quot;color: rgb(64, 120, 242);&quot;&gt;video_register_device&lt;/span&gt;&lt;/div&gt;&lt;div&gt;&lt;span style=&quot;color: rgb(64, 120, 242);&quot;&gt;&lt;div style=&quot;color: rgb(56, 58, 66); line-height: 19px;&quot;&gt;&lt;span style=&quot;color: rgb(172, 166, 0);&quot;&gt;v4l2_device_register_subdev&lt;/span&gt;&lt;/div&gt;&lt;/span&gt;&lt;/div&gt;&lt;/div&gt;" style="text;whiteSpace=wrap;html=1;align=center;" parent="1" vertex="1">
          <mxGeometry x="-175" y="160" width="210" height="50" as="geometry" />
        </mxCell>
        <mxCell id="y2ogkmQ-JljMTqqqrQBC-27" value="subdev drivers在注册subdev或者video_device时会注册entity" style="text;html=1;align=center;verticalAlign=middle;whiteSpace=wrap;rounded=0;" parent="1" vertex="1">
          <mxGeometry x="-290" y="140" width="170" height="30" as="geometry" />
        </mxCell>
        <mxCell id="y2ogkmQ-JljMTqqqrQBC-28" value="&lt;div style=&quot;color: #383a42;background-color: #f5f5f5;font-family: Consolas, &#39;Courier New&#39;, monospace;font-weight: normal;font-size: 14px;line-height: 19px;white-space: pre;&quot;&gt;&lt;div&gt;&lt;span style=&quot;color: #4078f2;&quot;&gt;media_device_register_entity&lt;/span&gt;&lt;/div&gt;&lt;/div&gt;" style="text;whiteSpace=wrap;html=1;" parent="1" vertex="1">
          <mxGeometry x="-460" y="170" width="220" height="30" as="geometry" />
        </mxCell>
        <mxCell id="y2ogkmQ-JljMTqqqrQBC-31" value="" style="curved=1;endArrow=classic;html=1;rounded=0;exitX=0.71;exitY=0.059;exitDx=0;exitDy=0;exitPerimeter=0;entryX=0.067;entryY=0.029;entryDx=0;entryDy=0;entryPerimeter=0;" parent="1" source="y2ogkmQ-JljMTqqqrQBC-12" target="y2ogkmQ-JljMTqqqrQBC-21" edge="1">
          <mxGeometry width="50" height="50" relative="1" as="geometry">
            <mxPoint x="440" y="-610" as="sourcePoint" />
            <mxPoint x="490" y="-660" as="targetPoint" />
            <Array as="points">
              <mxPoint x="360" y="-660" />
              <mxPoint x="850" y="-680" />
            </Array>
          </mxGeometry>
        </mxCell>
        <mxCell id="y2ogkmQ-JljMTqqqrQBC-32" value="" style="curved=1;endArrow=classic;html=1;rounded=0;exitX=0.25;exitY=1;exitDx=0;exitDy=0;" parent="1" source="y2ogkmQ-JljMTqqqrQBC-21" edge="1">
          <mxGeometry width="50" height="50" relative="1" as="geometry">
            <mxPoint x="460" y="10" as="sourcePoint" />
            <mxPoint x="-170" y="-370" as="targetPoint" />
            <Array as="points">
              <mxPoint x="880" />
              <mxPoint x="530" y="100" />
              <mxPoint x="100" y="-30" />
            </Array>
          </mxGeometry>
        </mxCell>
        <mxCell id="y2ogkmQ-JljMTqqqrQBC-33" value="这4个链表包含media_device下所有的entities, interface, pads, links" style="edgeLabel;html=1;align=center;verticalAlign=middle;resizable=0;points=[];" parent="y2ogkmQ-JljMTqqqrQBC-32" vertex="1" connectable="0">
          <mxGeometry x="0.9465" y="3" relative="1" as="geometry">
            <mxPoint x="106" y="-5" as="offset" />
          </mxGeometry>
        </mxCell>
        <mxCell id="y2ogkmQ-JljMTqqqrQBC-38" value="" style="edgeStyle=orthogonalEdgeStyle;rounded=0;orthogonalLoop=1;jettySize=auto;html=1;" parent="1" source="y2ogkmQ-JljMTqqqrQBC-35" target="y2ogkmQ-JljMTqqqrQBC-37" edge="1">
          <mxGeometry relative="1" as="geometry" />
        </mxCell>
        <mxCell id="y2ogkmQ-JljMTqqqrQBC-35" value="&lt;div style=&quot;color: #383a42;background-color: #f5f5f5;font-family: Consolas, &#39;Courier New&#39;, monospace;font-weight: normal;font-size: 14px;line-height: 19px;white-space: pre;&quot;&gt;&lt;div&gt;&lt;span style=&quot;color: #4078f2;&quot;&gt;video_device_pipeline_start&lt;/span&gt;&lt;/div&gt;&lt;/div&gt;" style="text;whiteSpace=wrap;html=1;" parent="1" vertex="1">
          <mxGeometry x="-270" y="550" width="220" height="30" as="geometry" />
        </mxCell>
        <mxCell id="y2ogkmQ-JljMTqqqrQBC-36" value="&lt;div style=&quot;color: #383a42;background-color: #f5f5f5;font-family: Consolas, &#39;Courier New&#39;, monospace;font-weight: normal;font-size: 14px;line-height: 19px;white-space: pre;&quot;&gt;&lt;div&gt;&lt;span style=&quot;color: #e45649;&quot;&gt;entity&lt;/span&gt;&lt;span style=&quot;color: #383a42;&quot;&gt;-&amp;gt;&lt;/span&gt;&lt;span style=&quot;color: #e45649;&quot;&gt;ops&lt;/span&gt;&lt;span style=&quot;color: #383a42;&quot;&gt;-&amp;gt;&lt;/span&gt;&lt;span style=&quot;color: #e45649;&quot;&gt;link_validate&lt;/span&gt;&lt;/div&gt;&lt;/div&gt;" style="text;whiteSpace=wrap;html=1;" parent="1" vertex="1">
          <mxGeometry x="210" y="590" width="210" height="30" as="geometry" />
        </mxCell>
        <mxCell id="LVzaqQTRrJqDkIRsGR0P-4" style="edgeStyle=orthogonalEdgeStyle;rounded=0;orthogonalLoop=1;jettySize=auto;html=1;exitX=1;exitY=0.5;exitDx=0;exitDy=0;entryX=0;entryY=0.5;entryDx=0;entryDy=0;" edge="1" parent="1" source="y2ogkmQ-JljMTqqqrQBC-37" target="LVzaqQTRrJqDkIRsGR0P-3">
          <mxGeometry relative="1" as="geometry" />
        </mxCell>
        <mxCell id="LVzaqQTRrJqDkIRsGR0P-9" style="edgeStyle=orthogonalEdgeStyle;rounded=0;orthogonalLoop=1;jettySize=auto;html=1;exitX=1;exitY=0.5;exitDx=0;exitDy=0;entryX=0;entryY=0.5;entryDx=0;entryDy=0;" edge="1" parent="1" source="y2ogkmQ-JljMTqqqrQBC-37" target="y2ogkmQ-JljMTqqqrQBC-36">
          <mxGeometry relative="1" as="geometry" />
        </mxCell>
        <mxCell id="y2ogkmQ-JljMTqqqrQBC-37" value="&lt;div style=&quot;color: #383a42;background-color: #f5f5f5;font-family: Consolas, &#39;Courier New&#39;, monospace;font-weight: normal;font-size: 14px;line-height: 19px;white-space: pre;&quot;&gt;&lt;div&gt;&lt;span style=&quot;color: #4078f2;&quot;&gt;media_pipeline_start&lt;/span&gt;&lt;/div&gt;&lt;/div&gt;" style="text;whiteSpace=wrap;html=1;" parent="1" vertex="1">
          <mxGeometry x="-10" y="550" width="160" height="30" as="geometry" />
        </mxCell>
        <mxCell id="y2ogkmQ-JljMTqqqrQBC-40" value="&lt;div style=&quot;color: rgb(56, 58, 66); background-color: rgb(245, 245, 245); font-family: Consolas, &amp;quot;Courier New&amp;quot;, monospace; font-weight: normal; font-size: 14px; line-height: 19px; white-space: pre;&quot;&gt;&lt;div&gt;&lt;span style=&quot;color: rgb(228, 86, 73);&quot;&gt;sink_pad&lt;/span&gt;&lt;span style=&quot;color: rgb(56, 58, 66);&quot;&gt; &lt;/span&gt;&lt;span style=&quot;color: rgb(56, 58, 66);&quot;&gt;=&lt;/span&gt;&lt;span style=&quot;color: rgb(56, 58, 66);&quot;&gt; &lt;/span&gt;&lt;span style=&quot;color: rgb(56, 58, 66);&quot;&gt;&amp;amp;&lt;/span&gt;&lt;span style=&quot;color: rgb(228, 86, 73);&quot;&gt;isp&lt;/span&gt;&lt;span style=&quot;color: rgb(56, 58, 66);&quot;&gt;-&amp;gt;&lt;/span&gt;&lt;span style=&quot;color: rgb(228, 86, 73);&quot;&gt;pads&lt;/span&gt;&lt;span style=&quot;color: rgb(56, 58, 66);&quot;&gt;[&lt;/span&gt;&lt;span style=&quot;color: rgb(228, 86, 73);&quot;&gt;RKISP1_ISP_PAD_SINK_VIDEO&lt;/span&gt;&lt;span style=&quot;color: rgb(56, 58, 66);&quot;&gt;];&lt;/span&gt;&lt;/div&gt;&lt;div&gt;&lt;span style=&quot;color: rgb(228, 86, 73);&quot;&gt;source_pad&lt;/span&gt;&lt;span style=&quot;color: rgb(56, 58, 66);&quot;&gt; &lt;/span&gt;&lt;span style=&quot;color: rgb(56, 58, 66);&quot;&gt;=&lt;/span&gt;&lt;span style=&quot;color: rgb(56, 58, 66);&quot;&gt; &lt;/span&gt;&lt;span style=&quot;color: rgb(64, 120, 242);&quot;&gt;media_pad_remote_pad_unique&lt;/span&gt;&lt;span style=&quot;color: rgb(56, 58, 66);&quot;&gt;(&lt;/span&gt;&lt;span style=&quot;color: rgb(228, 86, 73);&quot;&gt;sink_pad&lt;/span&gt;&lt;span style=&quot;color: rgb(56, 58, 66);&quot;&gt;);&lt;/span&gt;&lt;/div&gt;&lt;div&gt;&lt;span style=&quot;color: rgb(56, 58, 66);&quot;&gt;&lt;div style=&quot;line-height: 19px;&quot;&gt;&lt;span style=&quot;color: #e45649;&quot;&gt;rkisp1&lt;/span&gt;-&amp;gt;&lt;span style=&quot;color: #e45649;&quot;&gt;source&lt;/span&gt; = &lt;span style=&quot;color: #aca600;&quot;&gt;media_entity_to_v4l2_subdev&lt;/span&gt;(&lt;span style=&quot;color: #e45649;&quot;&gt;source_pad&lt;/span&gt;-&amp;gt;&lt;span style=&quot;color: #e45649;&quot;&gt;entity&lt;/span&gt;);&lt;/div&gt;&lt;div style=&quot;line-height: 19px;&quot;&gt;&lt;div style=&quot;line-height: 19px;&quot;&gt;&lt;span style=&quot;color: #aca600;&quot;&gt;v4l2_subdev_call&lt;/span&gt;(&lt;span style=&quot;color: #e45649;&quot;&gt;rkisp1&lt;/span&gt;-&amp;gt;&lt;span style=&quot;color: #e45649;&quot;&gt;source&lt;/span&gt;, &lt;span style=&quot;color: #e45649;&quot;&gt;video&lt;/span&gt;, &lt;span style=&quot;color: #e45649;&quot;&gt;s_stream&lt;/span&gt;, &lt;span style=&quot;color: #e45649;&quot;&gt;true&lt;/span&gt;);&lt;/div&gt;&lt;/div&gt;&lt;/span&gt;&lt;/div&gt;&lt;/div&gt;" style="text;whiteSpace=wrap;html=1;" parent="1" vertex="1">
          <mxGeometry x="-370" y="839" width="510" height="90" as="geometry" />
        </mxCell>
        <mxCell id="y2ogkmQ-JljMTqqqrQBC-41" value="通过当前sink pad找到远端source pad,&lt;div&gt;根据source pad找到subdev, 调用subdev回调&lt;/div&gt;" style="text;html=1;align=center;verticalAlign=middle;whiteSpace=wrap;rounded=0;" parent="1" vertex="1">
          <mxGeometry x="-520" y="810" width="250" height="30" as="geometry" />
        </mxCell>
        <mxCell id="LVzaqQTRrJqDkIRsGR0P-2" value="" style="edgeStyle=orthogonalEdgeStyle;rounded=0;orthogonalLoop=1;jettySize=auto;html=1;" edge="1" parent="1" source="LVzaqQTRrJqDkIRsGR0P-1" target="y2ogkmQ-JljMTqqqrQBC-35">
          <mxGeometry relative="1" as="geometry" />
        </mxCell>
        <mxCell id="LVzaqQTRrJqDkIRsGR0P-1" value="&lt;div style=&quot;color: #383a42;background-color: #f5f5f5;font-family: Consolas, &#39;Courier New&#39;, monospace;font-weight: normal;font-size: 14px;line-height: 19px;white-space: pre;&quot;&gt;&lt;div&gt;&lt;span style=&quot;color: #383a42;&quot;&gt;.&lt;/span&gt;&lt;span style=&quot;color: #e45649;&quot;&gt;start_streaming&lt;/span&gt;&lt;/div&gt;&lt;/div&gt;" style="text;whiteSpace=wrap;html=1;" vertex="1" parent="1">
          <mxGeometry x="-450" y="550" width="130" height="30" as="geometry" />
        </mxCell>
        <mxCell id="LVzaqQTRrJqDkIRsGR0P-7" style="edgeStyle=orthogonalEdgeStyle;rounded=0;orthogonalLoop=1;jettySize=auto;html=1;exitX=1;exitY=0.5;exitDx=0;exitDy=0;entryX=0;entryY=0.5;entryDx=0;entryDy=0;" edge="1" parent="1" source="LVzaqQTRrJqDkIRsGR0P-3" target="LVzaqQTRrJqDkIRsGR0P-6">
          <mxGeometry relative="1" as="geometry" />
        </mxCell>
        <mxCell id="LVzaqQTRrJqDkIRsGR0P-8" style="edgeStyle=orthogonalEdgeStyle;rounded=0;orthogonalLoop=1;jettySize=auto;html=1;exitX=1;exitY=0.5;exitDx=0;exitDy=0;entryX=0;entryY=0.5;entryDx=0;entryDy=0;" edge="1" parent="1" source="LVzaqQTRrJqDkIRsGR0P-3" target="LVzaqQTRrJqDkIRsGR0P-5">
          <mxGeometry relative="1" as="geometry" />
        </mxCell>
        <mxCell id="LVzaqQTRrJqDkIRsGR0P-3" value="&lt;div style=&quot;color: #383a42;background-color: #f5f5f5;font-family: Consolas, &#39;Courier New&#39;, monospace;font-weight: normal;font-size: 14px;line-height: 19px;white-space: pre;&quot;&gt;&lt;div&gt;&lt;span style=&quot;color: #4078f2;&quot;&gt;media_pipeline_populate&lt;/span&gt;&lt;/div&gt;&lt;/div&gt;" style="text;whiteSpace=wrap;html=1;" vertex="1" parent="1">
          <mxGeometry x="210" y="500" width="190" height="30" as="geometry" />
        </mxCell>
        <mxCell id="LVzaqQTRrJqDkIRsGR0P-5" value="&lt;div style=&quot;color: #383a42;background-color: #f5f5f5;font-family: Consolas, &#39;Courier New&#39;, monospace;font-weight: normal;font-size: 14px;line-height: 19px;white-space: pre;&quot;&gt;&lt;div&gt;&lt;span style=&quot;color: #4078f2;&quot;&gt;media_pipeline_explore_next_link&lt;/span&gt;&lt;/div&gt;&lt;/div&gt;" style="text;whiteSpace=wrap;html=1;" vertex="1" parent="1">
          <mxGeometry x="450" y="530" width="260" height="30" as="geometry" />
        </mxCell>
        <mxCell id="LVzaqQTRrJqDkIRsGR0P-6" value="&lt;div style=&quot;color: #383a42;background-color: #f5f5f5;font-family: Consolas, &#39;Courier New&#39;, monospace;font-weight: normal;font-size: 14px;line-height: 19px;white-space: pre;&quot;&gt;&lt;div&gt;&lt;span style=&quot;color: #4078f2;&quot;&gt;media_pipeline_add_pad&lt;/span&gt;&lt;/div&gt;&lt;/div&gt;" style="text;whiteSpace=wrap;html=1;" vertex="1" parent="1">
          <mxGeometry x="450" y="470" width="180" height="30" as="geometry" />
        </mxCell>
        <mxCell id="LVzaqQTRrJqDkIRsGR0P-10" value="构建整个pipeline" style="text;html=1;align=center;verticalAlign=middle;whiteSpace=wrap;rounded=0;" vertex="1" parent="1">
          <mxGeometry x="160" y="471" width="110" height="30" as="geometry" />
        </mxCell>
      </root>
    </mxGraphModel>
  </diagram>
</mxfile>
